<?xml version="1.0" encoding="UTF-8"?>
<svg xmlns="http://www.w3.org/2000/svg" width="883" height="175" viewBox="0 0 883 175" fill="none">
  <g clip-path="url(#clip0_845_2)">
    <rect width="883" height="175" fill="white"></rect>
    <path d="M41.3295 134.193C34.3409 134.193 28.3182 132.858 23.2614 130.188C18.233 127.489 14.3551 123.625 11.6278 118.597C8.92898 113.54 7.57955 107.489 7.57955 100.443C7.57955 93.6818 8.94318 87.7727 11.6705 82.7159C14.3977 77.6591 18.2472 73.7244 23.2188 70.9119C28.1903 68.0994 34.0568 66.6932 40.8182 66.6932C45.7614 66.6932 50.2358 67.4602 54.2415 68.9943C58.2472 70.5284 61.6705 72.7585 64.5114 75.6847C67.3523 78.5824 69.5398 82.1051 71.0739 86.2528C72.608 90.4006 73.375 95.0739 73.375 100.273V105.727H14.9091V92.7727H51.7273C51.6989 90.8977 51.2159 89.25 50.2784 87.8295C49.3693 86.3807 48.1335 85.2585 46.571 84.4631C45.0369 83.6392 43.2898 83.2273 41.3295 83.2273C39.4261 83.2273 37.679 83.6392 36.0881 84.4631C34.4972 85.2585 33.2188 86.3665 32.2528 87.7869C31.3153 89.2074 30.8182 90.8693 30.7614 92.7727V106.75C30.7614 108.852 31.2017 110.727 32.0824 112.375C32.9631 114.023 34.2273 115.315 35.875 116.253C37.5227 117.19 39.5114 117.659 41.8409 117.659C43.4602 117.659 44.9375 117.432 46.2727 116.977C47.6364 116.523 48.8011 115.869 49.767 115.017C50.733 114.136 51.4432 113.085 51.8977 111.864H73.375C72.6364 116.409 70.8892 120.358 68.1335 123.71C65.3778 127.034 61.7273 129.619 57.1818 131.466C52.6648 133.284 47.3807 134.193 41.3295 134.193ZM103.496 96.1818V133H79.9737V67.5455H102.303V79.9886H102.985C104.406 75.8409 106.906 72.5881 110.485 70.2301C114.093 67.8722 118.298 66.6932 123.099 66.6932C127.729 66.6932 131.749 67.7585 135.158 69.8892C138.596 71.9915 141.252 74.8892 143.127 78.5824C145.031 82.2756 145.968 86.4943 145.94 91.2386V133H122.417V96.1818C122.445 92.9432 121.621 90.4006 119.945 88.554C118.298 86.7074 115.996 85.7841 113.042 85.7841C111.11 85.7841 109.42 86.2102 107.971 87.0625C106.55 87.8864 105.457 89.0795 104.69 90.642C103.923 92.1761 103.525 94.0227 103.496 96.1818ZM185.915 134.193C178.927 134.193 172.904 132.858 167.847 130.188C162.819 127.489 158.941 123.625 156.214 118.597C153.515 113.54 152.165 107.489 152.165 100.443C152.165 93.6818 153.529 87.7727 156.256 82.7159C158.984 77.6591 162.833 73.7244 167.805 70.9119C172.776 68.0994 178.643 66.6932 185.404 66.6932C190.347 66.6932 194.822 67.4602 198.827 68.9943C202.833 70.5284 206.256 72.7585 209.097 75.6847C211.938 78.5824 214.126 82.1051 215.66 86.2528C217.194 90.4006 217.961 95.0739 217.961 100.273V105.727H159.495V92.7727H196.313C196.285 90.8977 195.802 89.25 194.864 87.8295C193.955 86.3807 192.719 85.2585 191.157 84.4631C189.623 83.6392 187.876 83.2273 185.915 83.2273C184.012 83.2273 182.265 83.6392 180.674 84.4631C179.083 85.2585 177.805 86.3665 176.839 87.7869C175.901 89.2074 175.404 90.8693 175.347 92.7727V106.75C175.347 108.852 175.788 110.727 176.668 112.375C177.549 114.023 178.813 115.315 180.461 116.253C182.109 117.19 184.097 117.659 186.427 117.659C188.046 117.659 189.523 117.432 190.859 116.977C192.222 116.523 193.387 115.869 194.353 115.017C195.319 114.136 196.029 113.085 196.484 111.864H217.961C217.222 116.409 215.475 120.358 212.719 123.71C209.964 127.034 206.313 129.619 201.768 131.466C197.251 133.284 191.967 134.193 185.915 134.193ZM224.56 133V67.5455H247.401V79.9886H248.082C249.276 75.3864 251.165 72.0199 253.75 69.8892C256.364 67.7585 259.418 66.6932 262.912 66.6932C263.935 66.6932 264.943 66.7784 265.938 66.9489C266.96 67.0909 267.94 67.304 268.878 67.5881V87.6591C267.713 87.2614 266.278 86.9631 264.574 86.7642C262.869 86.5653 261.406 86.4659 260.185 86.4659C257.884 86.4659 255.81 86.9915 253.963 88.0426C252.145 89.0653 250.71 90.5142 249.659 92.3892C248.608 94.2358 248.082 96.4091 248.082 98.9091V133H224.56ZM305.725 158.909C299.163 158.909 293.538 157.972 288.85 156.097C284.191 154.25 280.569 151.693 277.984 148.426C275.427 145.188 273.992 141.466 273.68 137.261H296.35C296.577 138.653 297.145 139.776 298.055 140.628C298.964 141.48 300.128 142.091 301.549 142.46C302.998 142.858 304.617 143.057 306.407 143.057C309.447 143.057 311.961 142.318 313.949 140.841C315.966 139.364 316.975 136.693 316.975 132.83V121.75H316.293C315.441 123.966 314.134 125.855 312.373 127.418C310.611 128.952 308.495 130.131 306.023 130.955C303.552 131.75 300.839 132.148 297.884 132.148C293.225 132.148 288.935 131.068 285.015 128.909C281.123 126.75 277.998 123.327 275.64 118.639C273.31 113.952 272.145 107.83 272.145 100.273C272.145 92.375 273.367 85.9545 275.81 81.0114C278.282 76.0682 281.464 72.446 285.356 70.1449C289.276 67.8438 293.395 66.6932 297.714 66.6932C300.952 66.6932 303.793 67.2614 306.236 68.3977C308.68 69.5057 310.725 70.9972 312.373 72.8722C314.02 74.7187 315.27 76.75 316.123 78.9659H316.634V67.5455H340.157V132.83C340.157 138.369 338.722 143.071 335.853 146.935C333.012 150.827 329.006 153.795 323.836 155.841C318.665 157.886 312.628 158.909 305.725 158.909ZM306.577 115.443C308.736 115.443 310.583 114.847 312.117 113.653C313.68 112.432 314.873 110.699 315.697 108.455C316.549 106.182 316.975 103.455 316.975 100.273C316.975 97.0341 316.549 94.2642 315.697 91.9631C314.873 89.6335 313.68 87.858 312.117 86.6364C310.583 85.3864 308.736 84.7614 306.577 84.7614C304.418 84.7614 302.572 85.3864 301.038 86.6364C299.532 87.858 298.367 89.6335 297.543 91.9631C296.748 94.2642 296.35 97.0341 296.35 100.273C296.35 103.511 296.748 106.267 297.543 108.54C298.367 110.784 299.532 112.503 301.038 113.696C302.572 114.861 304.418 115.443 306.577 115.443ZM349.121 133V67.5455H372.643V133H349.121ZM360.882 60.7273C357.7 60.7273 354.973 59.6761 352.7 57.5739C350.427 55.4716 349.291 52.9432 349.291 49.9886C349.291 47.0341 350.427 44.5057 352.7 42.4034C354.973 40.3011 357.7 39.25 360.882 39.25C364.092 39.25 366.819 40.3011 369.064 42.4034C371.337 44.5057 372.473 47.0341 372.473 49.9886C372.473 52.9432 371.337 55.4716 369.064 57.5739C366.819 59.6761 364.092 60.7273 360.882 60.7273ZM412.992 134.193C406.003 134.193 399.981 132.858 394.924 130.188C389.895 127.489 386.018 123.625 383.29 118.597C380.591 113.54 379.242 107.489 379.242 100.443C379.242 93.6818 380.606 87.7727 383.333 82.7159C386.06 77.6591 389.91 73.7244 394.881 70.9119C399.853 68.0994 405.719 66.6932 412.481 66.6932C417.424 66.6932 421.898 67.4602 425.904 68.9943C429.91 70.5284 433.333 72.7585 436.174 75.6847C439.015 78.5824 441.202 82.1051 442.736 86.2528C444.27 90.4006 445.038 95.0739 445.038 100.273V105.727H386.572V92.7727H423.39C423.361 90.8977 422.878 89.25 421.941 87.8295C421.032 86.3807 419.796 85.2585 418.234 84.4631C416.699 83.6392 414.952 83.2273 412.992 83.2273C411.089 83.2273 409.341 83.6392 407.751 84.4631C406.16 85.2585 404.881 86.3665 403.915 87.7869C402.978 89.2074 402.481 90.8693 402.424 92.7727V106.75C402.424 108.852 402.864 110.727 403.745 112.375C404.626 114.023 405.89 115.315 407.538 116.253C409.185 117.19 411.174 117.659 413.503 117.659C415.123 117.659 416.6 117.432 417.935 116.977C419.299 116.523 420.464 115.869 421.43 115.017C422.395 114.136 423.106 113.085 423.56 111.864H445.038C444.299 116.409 442.552 120.358 439.796 123.71C437.04 127.034 433.39 129.619 428.844 131.466C424.327 133.284 419.043 134.193 412.992 134.193Z" fill="#0D3152"></path>
    <path d="M454.236 133V67.5455H466.466V78.1989H467.275C468.639 74.5909 470.869 71.7784 473.966 69.7614C477.062 67.7159 480.77 66.6932 485.088 66.6932C489.463 66.6932 493.128 67.7159 496.082 69.7614C499.065 71.8068 501.267 74.6193 502.687 78.1989H503.369C504.932 74.7045 507.417 71.9205 510.827 69.8466C514.236 67.7443 518.298 66.6932 523.014 66.6932C528.952 66.6932 533.795 68.554 537.545 72.2756C541.324 75.9972 543.213 81.608 543.213 89.108V133H530.471V90.3011C530.471 85.8693 529.264 82.6591 526.849 80.6705C524.435 78.6818 521.551 77.6875 518.199 77.6875C514.051 77.6875 510.827 78.9659 508.525 81.5227C506.224 84.0511 505.074 87.304 505.074 91.2812V133H492.375V89.4915C492.375 85.9403 491.267 83.0852 489.051 80.9261C486.835 78.767 483.952 77.6875 480.4 77.6875C477.986 77.6875 475.756 78.3267 473.71 79.6051C471.693 80.8551 470.06 82.6023 468.81 84.8466C467.588 87.0909 466.977 89.6903 466.977 92.6449V133H454.236ZM571.539 134.449C567.391 134.449 563.641 133.682 560.289 132.148C556.936 130.585 554.28 128.327 552.32 125.372C550.388 122.418 549.422 118.795 549.422 114.506C549.422 110.812 550.132 107.773 551.553 105.386C552.973 103 554.891 101.111 557.306 99.7188C559.72 98.3267 562.419 97.2756 565.402 96.5653C568.385 95.8551 571.425 95.3153 574.522 94.946C578.442 94.4915 581.624 94.1222 584.067 93.8381C586.51 93.5256 588.286 93.0284 589.394 92.3466C590.502 91.6648 591.056 90.5568 591.056 89.0227V88.7244C591.056 85.0028 590.005 82.1193 587.902 80.0739C585.828 78.0284 582.732 77.0057 578.612 77.0057C574.323 77.0057 570.942 77.9574 568.47 79.8608C566.027 81.7358 564.337 83.8239 563.399 86.125L551.425 83.3977C552.845 79.4205 554.919 76.2102 557.647 73.767C560.402 71.2955 563.57 69.5057 567.149 68.3977C570.729 67.2614 574.493 66.6932 578.442 66.6932C581.056 66.6932 583.826 67.0057 586.752 67.6307C589.706 68.2273 592.462 69.3352 595.019 70.9545C597.604 72.5739 599.72 74.8892 601.368 77.9006C603.016 80.8835 603.84 84.7614 603.84 89.5341V133H591.397V124.051H590.885C590.061 125.699 588.826 127.318 587.178 128.909C585.53 130.5 583.414 131.821 580.828 132.872C578.243 133.923 575.147 134.449 571.539 134.449ZM574.309 124.222C577.831 124.222 580.843 123.526 583.343 122.134C585.871 120.741 587.789 118.923 589.095 116.679C590.431 114.406 591.098 111.977 591.098 109.392V100.955C590.644 101.409 589.763 101.835 588.456 102.233C587.178 102.602 585.715 102.929 584.067 103.213C582.419 103.469 580.814 103.71 579.252 103.938C577.689 104.136 576.382 104.307 575.331 104.449C572.86 104.761 570.601 105.287 568.556 106.026C566.539 106.764 564.919 107.83 563.698 109.222C562.505 110.585 561.908 112.403 561.908 114.676C561.908 117.83 563.073 120.216 565.402 121.835C567.732 123.426 570.701 124.222 574.309 124.222ZM640.454 158.909C635.255 158.909 630.781 158.227 627.031 156.864C623.309 155.5 620.269 153.696 617.911 151.452C615.553 149.207 613.792 146.75 612.627 144.08L623.579 139.562C624.346 140.812 625.369 142.134 626.647 143.526C627.954 144.946 629.715 146.153 631.931 147.148C634.175 148.142 637.059 148.639 640.582 148.639C645.411 148.639 649.403 147.46 652.556 145.102C655.71 142.773 657.286 139.051 657.286 133.938V121.068H656.477C655.71 122.46 654.602 124.009 653.153 125.713C651.732 127.418 649.772 128.895 647.272 130.145C644.772 131.395 641.519 132.02 637.513 132.02C632.343 132.02 627.684 130.812 623.536 128.398C619.417 125.955 616.15 122.361 613.735 117.616C611.349 112.844 610.156 106.977 610.156 100.017C610.156 93.0568 611.335 87.0909 613.692 82.1193C616.079 77.1477 619.346 73.3409 623.494 70.6989C627.641 68.0284 632.343 66.6932 637.599 66.6932C641.661 66.6932 644.942 67.375 647.442 68.7386C649.942 70.0739 651.888 71.6364 653.281 73.4261C654.701 75.2159 655.795 76.7926 656.562 78.1562H657.499V67.5455H669.985V134.449C669.985 140.074 668.678 144.69 666.065 148.298C663.451 151.906 659.914 154.577 655.454 156.31C651.022 158.043 646.022 158.909 640.454 158.909ZM640.326 121.452C643.991 121.452 647.087 120.599 649.616 118.895C652.173 117.162 654.104 114.69 655.411 111.48C656.746 108.241 657.414 104.364 657.414 99.8466C657.414 95.4432 656.761 91.5653 655.454 88.2131C654.147 84.8608 652.229 82.2472 649.701 80.3722C647.173 78.4687 644.048 77.517 640.326 77.517C636.491 77.517 633.295 78.5114 630.738 80.5C628.181 82.4602 626.249 85.1307 624.942 88.5114C623.664 91.892 623.025 95.6705 623.025 99.8466C623.025 104.136 623.678 107.901 624.985 111.139C626.292 114.378 628.224 116.906 630.781 118.724C633.366 120.543 636.548 121.452 640.326 121.452ZM698.321 134.449C694.174 134.449 690.424 133.682 687.071 132.148C683.719 130.585 681.063 128.327 679.103 125.372C677.171 122.418 676.205 118.795 676.205 114.506C676.205 110.812 676.915 107.773 678.336 105.386C679.756 103 681.674 101.111 684.089 99.7188C686.503 98.3267 689.202 97.2756 692.185 96.5653C695.168 95.8551 698.208 95.3153 701.304 94.946C705.225 94.4915 708.407 94.1222 710.85 93.8381C713.293 93.5256 715.069 93.0284 716.177 92.3466C717.285 91.6648 717.839 90.5568 717.839 89.0227V88.7244C717.839 85.0028 716.787 82.1193 714.685 80.0739C712.611 78.0284 709.515 77.0057 705.395 77.0057C701.106 77.0057 697.725 77.9574 695.253 79.8608C692.81 81.7358 691.12 83.8239 690.182 86.125L678.208 83.3977C679.628 79.4205 681.702 76.2102 684.429 73.767C687.185 71.2955 690.353 69.5057 693.932 68.3977C697.512 67.2614 701.276 66.6932 705.225 66.6932C707.839 66.6932 710.608 67.0057 713.535 67.6307C716.489 68.2273 719.245 69.3352 721.802 70.9545C724.387 72.5739 726.503 74.8892 728.151 77.9006C729.799 80.8835 730.623 84.7614 730.623 89.5341V133H718.179V124.051H717.668C716.844 125.699 715.608 127.318 713.961 128.909C712.313 130.5 710.196 131.821 707.611 132.872C705.026 133.923 701.929 134.449 698.321 134.449ZM701.091 124.222C704.614 124.222 707.625 123.526 710.125 122.134C712.654 120.741 714.571 118.923 715.878 116.679C717.214 114.406 717.881 111.977 717.881 109.392V100.955C717.427 101.409 716.546 101.835 715.239 102.233C713.961 102.602 712.498 102.929 710.85 103.213C709.202 103.469 707.597 103.71 706.035 103.938C704.472 104.136 703.165 104.307 702.114 104.449C699.642 104.761 697.384 105.287 695.339 106.026C693.321 106.764 691.702 107.83 690.481 109.222C689.287 110.585 688.691 112.403 688.691 114.676C688.691 117.83 689.856 120.216 692.185 121.835C694.515 123.426 697.483 124.222 701.091 124.222ZM738.43 133V124.264L773.884 79.2216V78.625H739.58V67.5455H789.779V76.8352L755.688 121.324V121.92H790.972V133H738.43ZM798.204 133V67.5455H810.946V133H798.204ZM804.639 57.446C802.423 57.446 800.52 56.7074 798.929 55.2301C797.366 53.7244 796.585 51.9347 796.585 49.8608C796.585 47.7585 797.366 45.9687 798.929 44.4915C800.52 42.9858 802.423 42.233 804.639 42.233C806.855 42.233 808.744 42.9858 810.307 44.4915C811.898 45.9687 812.693 47.7585 812.693 49.8608C812.693 51.9347 811.898 53.7244 810.307 55.2301C808.744 56.7074 806.855 57.446 804.639 57.446ZM833.029 94.1364V133H820.287V67.5455H832.517V78.1989H833.327C834.833 74.733 837.191 71.9489 840.401 69.8466C843.639 67.7443 847.716 66.6932 852.631 66.6932C857.091 66.6932 860.997 67.6307 864.35 69.5057C867.702 71.3523 870.301 74.108 872.148 77.7727C873.995 81.4375 874.918 85.9687 874.918 91.3665V133H862.176V92.9006C862.176 88.1562 860.941 84.4489 858.469 81.7784C855.997 79.0795 852.603 77.7301 848.284 77.7301C845.33 77.7301 842.702 78.3693 840.401 79.6477C838.128 80.9261 836.324 82.8011 834.989 85.2727C833.682 87.7159 833.029 90.6705 833.029 94.1364Z" fill="#3E77AB"></path>
    <rect x="323" y="22" width="59" height="39" fill="white"></rect>
    <path opacity="0.75" d="M14.9545 50H8.79332V31.8182H15.0788C16.884 31.8182 18.4347 32.1822 19.7308 32.9102C21.0329 33.6322 22.0331 34.6709 22.7315 36.0263C23.4299 37.3816 23.7791 39.0033 23.7791 40.8913C23.7791 42.7853 23.427 44.4129 22.7227 45.7741C22.0243 47.1354 21.0152 48.18 19.6953 48.908C18.3814 49.636 16.8011 50 14.9545 50ZM12.087 47.1502H14.7947C16.0613 47.1502 17.1178 46.9194 17.9641 46.4577C18.8105 45.9902 19.4467 45.2947 19.8729 44.3714C20.299 43.4422 20.5121 42.2822 20.5121 40.8913C20.5121 39.5005 20.299 38.3464 19.8729 37.429C19.4467 36.5057 18.8164 35.8162 17.9819 35.3604C17.1533 34.8988 16.1235 34.668 14.8924 34.668H12.087V47.1502ZM28.7669 50H25.2512L31.6522 31.8182H35.7182L42.128 50H38.6124L33.7562 35.5469H33.6142L28.7669 50ZM28.8823 42.8711H38.4703V45.5167H28.8823V42.8711ZM54.6109 36.8164C54.528 36.0411 54.1788 35.4374 53.5633 35.0053C52.9537 34.5733 52.1606 34.3572 51.184 34.3572C50.4975 34.3572 49.9086 34.4608 49.4173 34.668C48.9261 34.8751 48.5503 35.1562 48.2899 35.5114C48.0294 35.8665 47.8963 36.2719 47.8904 36.7276C47.8904 37.1064 47.9762 37.4349 48.1478 37.7131C48.3254 37.9912 48.5651 38.228 48.8669 38.4233C49.1688 38.6127 49.5032 38.7725 49.8701 38.9027C50.2371 39.0329 50.607 39.1424 50.9798 39.2312L52.6844 39.6573C53.3709 39.8171 54.0309 40.0331 54.6642 40.3054C55.3034 40.5777 55.8745 40.9209 56.3776 41.3352C56.8866 41.7495 57.289 42.2496 57.585 42.8356C57.8809 43.4215 58.0289 44.1081 58.0289 44.8952C58.0289 45.9606 57.7566 46.8987 57.2121 47.7095C56.6676 48.5144 55.8804 49.1448 54.8506 49.6005C53.8267 50.0503 52.5867 50.2752 51.1308 50.2752C49.7162 50.2752 48.4881 50.0562 47.4465 49.6183C46.4107 49.1803 45.5999 48.5411 45.0139 47.7006C44.4339 46.8602 44.1202 45.8363 44.0729 44.6289H47.3133C47.3606 45.2622 47.556 45.7889 47.8992 46.2092C48.2425 46.6294 48.6894 46.9431 49.2398 47.1502C49.7961 47.3574 50.4176 47.4609 51.1041 47.4609C51.8203 47.4609 52.4477 47.3544 52.9862 47.1413C53.5307 46.9223 53.9569 46.6205 54.2646 46.2358C54.5724 45.8452 54.7293 45.3894 54.7352 44.8686C54.7293 44.3951 54.5902 44.0045 54.3179 43.6967C54.0457 43.383 53.6639 43.1226 53.1727 42.9155C52.6874 42.7024 52.1192 42.513 51.4681 42.3473L49.3996 41.8146C47.9022 41.4299 46.7185 40.8469 45.8485 40.0657C44.9843 39.2785 44.5523 38.2339 44.5523 36.9318C44.5523 35.8606 44.8423 34.9225 45.4223 34.1175C46.0083 33.3126 46.8043 32.6882 47.8105 32.2443C48.8166 31.7945 49.9559 31.5696 51.2284 31.5696C52.5187 31.5696 53.6491 31.7945 54.6198 32.2443C55.5963 32.6882 56.3628 33.3067 56.9191 34.0998C57.4755 34.887 57.7625 35.7925 57.7803 36.8164H54.6109ZM79.6277 31.8182H82.9213V43.6967C82.9213 44.9988 82.6136 46.1441 81.998 47.1325C81.3884 48.1209 80.5302 48.8932 79.4235 49.4496C78.3167 50 77.0235 50.2752 75.5439 50.2752C74.0583 50.2752 72.7621 50 71.6554 49.4496C70.5486 48.8932 69.6904 48.1209 69.0808 47.1325C68.4712 46.1441 68.1664 44.9988 68.1664 43.6967V31.8182H71.46V43.4215C71.46 44.1791 71.6258 44.8538 71.9572 45.4457C72.2946 46.0375 72.7681 46.5021 73.3777 46.8395C73.9873 47.1709 74.7093 47.3366 75.5439 47.3366C76.3784 47.3366 77.1004 47.1709 77.71 46.8395C78.3256 46.5021 78.7991 46.0375 79.1305 45.4457C79.4619 44.8538 79.6277 44.1791 79.6277 43.4215V31.8182ZM101.943 31.8182V50H99.0131L90.4459 37.6154H90.295V50H87.0013V31.8182H89.9488L98.507 44.2116H98.6668V31.8182H101.943ZM108.366 50H104.851L111.252 31.8182H115.318L121.728 50H118.212L113.356 35.5469H113.214L108.366 50ZM108.482 42.8711H118.07V45.5167H108.482V42.8711ZM124.622 50V31.8182H131.583C132.897 31.8182 133.989 32.0253 134.859 32.4396C135.735 32.848 136.389 33.4073 136.821 34.1175C137.259 34.8278 137.478 35.6327 137.478 36.5323C137.478 37.2721 137.335 37.9054 137.051 38.4322C136.767 38.953 136.386 39.3762 135.906 39.7017C135.427 40.0272 134.891 40.261 134.299 40.4031V40.5806C134.944 40.6161 135.563 40.8144 136.155 41.1754C136.753 41.5305 137.241 42.0336 137.62 42.6847C137.998 43.3357 138.188 44.1229 138.188 45.0462C138.188 45.9872 137.96 46.8336 137.504 47.5852C137.048 48.331 136.362 48.9199 135.445 49.3519C134.527 49.784 133.373 50 131.982 50H124.622ZM127.916 47.2479H131.458C132.654 47.2479 133.515 47.02 134.042 46.5643C134.574 46.1026 134.841 45.5108 134.841 44.7887C134.841 44.2501 134.708 43.7648 134.441 43.3327C134.175 42.8948 133.796 42.5515 133.305 42.3029C132.814 42.0484 132.228 41.9212 131.547 41.9212H127.916V47.2479ZM127.916 39.5508H131.174C131.742 39.5508 132.254 39.4472 132.71 39.2401C133.166 39.027 133.524 38.7281 133.784 38.3434C134.051 37.9528 134.184 37.4911 134.184 36.9585C134.184 36.2541 133.935 35.6741 133.438 35.2184C132.947 34.7627 132.216 34.5348 131.245 34.5348H127.916V39.5508ZM141.553 50V31.8182H144.847V39.5153H153.272V31.8182H156.574V50H153.272V42.2763H144.847V50H141.553ZM162.991 50H159.476L165.877 31.8182H169.943L176.353 50H172.837L167.981 35.5469H167.839L162.991 50ZM163.107 42.8711H172.695V45.5167H163.107V42.8711ZM165.255 29.8118C164.788 29.8118 164.382 29.6461 164.039 29.3146C163.702 28.9832 163.533 28.5926 163.533 28.1428C163.533 27.6693 163.702 27.2727 164.039 26.9531C164.382 26.6276 164.788 26.4648 165.255 26.4648C165.735 26.4648 166.137 26.6276 166.463 26.9531C166.794 27.2727 166.96 27.6693 166.96 28.1428C166.96 28.5926 166.794 28.9832 166.463 29.3146C166.137 29.6461 165.735 29.8118 165.255 29.8118ZM170.582 29.8118C170.114 29.8118 169.709 29.6461 169.366 29.3146C169.028 28.9832 168.86 28.5926 168.86 28.1428C168.86 27.6693 169.028 27.2727 169.366 26.9531C169.709 26.6276 170.114 26.4648 170.582 26.4648C171.061 26.4648 171.464 26.6276 171.789 26.9531C172.121 27.2727 172.287 27.6693 172.287 28.1428C172.287 28.5926 172.121 28.9832 171.789 29.3146C171.464 29.6461 171.061 29.8118 170.582 29.8118ZM194.189 31.8182V50H191.259L182.692 37.6154H182.541V50H179.247V31.8182H182.195L190.753 44.2116H190.913V31.8182H194.189ZM210.458 37.6243C210.31 37.1449 210.106 36.7158 209.846 36.337C209.591 35.9523 209.283 35.6238 208.922 35.3516C208.567 35.0793 208.159 34.8751 207.697 34.739C207.235 34.5969 206.732 34.5259 206.188 34.5259C205.211 34.5259 204.341 34.7715 203.578 35.2628C202.814 35.754 202.214 36.4761 201.776 37.429C201.344 38.3759 201.127 39.5301 201.127 40.8913C201.127 42.2644 201.344 43.4274 201.776 44.3803C202.208 45.3332 202.808 46.0582 203.578 46.5554C204.347 47.0466 205.241 47.2923 206.259 47.2923C207.182 47.2923 207.981 47.1147 208.656 46.7596C209.337 46.4045 209.86 45.9014 210.227 45.2504C210.594 44.5934 210.778 43.824 210.778 42.9421L211.523 43.0575H206.587V40.483H213.965V42.6669C213.965 44.2235 213.633 45.57 212.971 46.7063C212.308 47.8427 211.396 48.7186 210.236 49.3342C209.076 49.9438 207.744 50.2486 206.241 50.2486C204.566 50.2486 203.095 49.8728 201.829 49.1211C200.568 48.3635 199.583 47.2893 198.873 45.8984C198.168 44.5017 197.816 42.8445 197.816 40.9268C197.816 39.459 198.023 38.1481 198.438 36.994C198.858 35.8398 199.444 34.8603 200.195 34.0554C200.947 33.2446 201.829 32.629 202.841 32.2088C203.853 31.7827 204.954 31.5696 206.143 31.5696C207.15 31.5696 208.088 31.7176 208.958 32.0135C209.828 32.3035 210.6 32.7178 211.275 33.2564C211.955 33.795 212.515 34.4342 212.953 35.174C213.391 35.9138 213.678 36.7306 213.814 37.6243H210.458ZM220.943 31.8182V50H217.65V31.8182H220.943ZM237.191 37.6243C237.043 37.1449 236.838 36.7158 236.578 36.337C236.323 35.9523 236.016 35.6238 235.655 35.3516C235.3 35.0793 234.891 34.8751 234.43 34.739C233.968 34.5969 233.465 34.5259 232.92 34.5259C231.944 34.5259 231.074 34.7715 230.31 35.2628C229.547 35.754 228.946 36.4761 228.508 37.429C228.076 38.3759 227.86 39.5301 227.86 40.8913C227.86 42.2644 228.076 43.4274 228.508 44.3803C228.94 45.3332 229.541 46.0582 230.31 46.5554C231.08 47.0466 231.973 47.2923 232.991 47.2923C233.915 47.2923 234.714 47.1147 235.388 46.7596C236.069 46.4045 236.593 45.9014 236.96 45.2504C237.327 44.5934 237.51 43.824 237.51 42.9421L238.256 43.0575H233.32V40.483H240.697V42.6669C240.697 44.2235 240.366 45.57 239.703 46.7063C239.04 47.8427 238.129 48.7186 236.969 49.3342C235.809 49.9438 234.477 50.2486 232.974 50.2486C231.299 50.2486 229.828 49.8728 228.561 49.1211C227.301 48.3635 226.315 47.2893 225.605 45.8984C224.901 44.5017 224.548 42.8445 224.548 40.9268C224.548 39.459 224.756 38.1481 225.17 36.994C225.59 35.8398 226.176 34.8603 226.928 34.0554C227.679 33.2446 228.561 32.629 229.573 32.2088C230.585 31.7827 231.686 31.5696 232.876 31.5696C233.882 31.5696 234.82 31.7176 235.69 32.0135C236.56 32.3035 237.333 32.7178 238.007 33.2564C238.688 33.795 239.247 34.4342 239.685 35.174C240.123 35.9138 240.41 36.7306 240.546 37.6243H237.191ZM244.382 50V31.8182H256.207V34.5792H247.676V39.5153H255.595V42.2763H247.676V47.239H256.278V50H244.382ZM269.201 31.8182L273.933 46.1293H274.12L278.843 31.8182H282.465L276.055 50H271.989L265.588 31.8182H269.201ZM285.36 50V31.8182H297.185V34.5792H288.653V39.5153H296.572V42.2763H288.653V47.239H297.256V50H285.36ZM301.045 50V31.8182H307.863C309.26 31.8182 310.432 32.0608 311.379 32.5462C312.332 33.0315 313.051 33.7121 313.536 34.5881C314.028 35.4581 314.273 36.4731 314.273 37.6332C314.273 38.7991 314.025 39.8112 313.528 40.6694C313.036 41.5217 312.311 42.1816 311.352 42.6491C310.394 43.1108 309.216 43.3416 307.819 43.3416H302.963V40.6072H307.375C308.192 40.6072 308.861 40.4948 309.382 40.2699C309.902 40.0391 310.287 39.7047 310.536 39.2667C310.79 38.8228 310.917 38.2783 310.917 37.6332C310.917 36.988 310.79 36.4376 310.536 35.9819C310.281 35.5202 309.894 35.171 309.373 34.9343C308.852 34.6916 308.18 34.5703 307.357 34.5703H304.339V50H301.045ZM310.438 41.7614L314.939 50H311.264L306.843 41.7614H310.438ZM317.805 50V31.8182H324.765C326.079 31.8182 327.171 32.0253 328.041 32.4396C328.917 32.848 329.571 33.4073 330.003 34.1175C330.441 34.8278 330.66 35.6327 330.66 36.5323C330.66 37.2721 330.518 37.9054 330.234 38.4322C329.95 38.953 329.568 39.3762 329.089 39.7017C328.609 40.0272 328.074 40.261 327.482 40.4031V40.5806C328.127 40.6161 328.746 40.8144 329.337 41.1754C329.935 41.5305 330.423 42.0336 330.802 42.6847C331.181 43.3357 331.37 44.1229 331.37 45.0462C331.37 45.9872 331.143 46.8336 330.687 47.5852C330.231 48.331 329.545 48.9199 328.627 49.3519C327.71 49.784 326.556 50 325.165 50H317.805ZM321.099 47.2479H324.641C325.837 47.2479 326.698 47.02 327.224 46.5643C327.757 46.1026 328.023 45.5108 328.023 44.7887C328.023 44.2501 327.89 43.7648 327.624 43.3327C327.358 42.8948 326.979 42.5515 326.488 42.3029C325.996 42.0484 325.41 41.9212 324.73 41.9212H321.099V47.2479ZM321.099 39.5508H324.357C324.925 39.5508 325.437 39.4472 325.893 39.2401C326.348 39.027 326.707 38.7281 326.967 38.3434C327.233 37.9528 327.366 37.4911 327.366 36.9585C327.366 36.2541 327.118 35.6741 326.621 35.2184C326.129 34.7627 325.399 34.5348 324.428 34.5348H321.099V39.5508ZM334.736 50V31.8182H341.554C342.951 31.8182 344.123 32.0608 345.07 32.5462C346.022 33.0315 346.742 33.7121 347.227 34.5881C347.718 35.4581 347.964 36.4731 347.964 37.6332C347.964 38.7991 347.715 39.8112 347.218 40.6694C346.727 41.5217 346.002 42.1816 345.043 42.6491C344.084 43.1108 342.906 43.3416 341.509 43.3416H336.653V40.6072H341.066C341.882 40.6072 342.551 40.4948 343.072 40.2699C343.593 40.0391 343.978 39.7047 344.226 39.2667C344.481 38.8228 344.608 38.2783 344.608 37.6332C344.608 36.988 344.481 36.4376 344.226 35.9819C343.972 35.5202 343.584 35.171 343.063 34.9343C342.542 34.6916 341.871 34.5703 341.048 34.5703H338.029V50H334.736ZM344.128 41.7614L348.63 50H344.954L340.533 41.7614H344.128ZM353.83 50H350.315L356.716 31.8182H360.782L367.191 50H363.676L358.82 35.5469H358.678L353.83 50ZM353.946 42.8711H363.534V45.5167H353.946V42.8711ZM381.548 31.8182H384.841V43.6967C384.841 44.9988 384.533 46.1441 383.918 47.1325C383.308 48.1209 382.45 48.8932 381.343 49.4496C380.237 50 378.943 50.2752 377.464 50.2752C375.978 50.2752 374.682 50 373.575 49.4496C372.469 48.8932 371.61 48.1209 371.001 47.1325C370.391 46.1441 370.086 44.9988 370.086 43.6967V31.8182H373.38V43.4215C373.38 44.1791 373.546 44.8538 373.877 45.4457C374.214 46.0375 374.688 46.5021 375.298 46.8395C375.907 47.1709 376.629 47.3366 377.464 47.3366C378.298 47.3366 379.02 47.1709 379.63 46.8395C380.246 46.5021 380.719 46.0375 381.05 45.4457C381.382 44.8538 381.548 44.1791 381.548 43.4215V31.8182ZM404.484 37.9528H401.164C401.069 37.4083 400.895 36.9259 400.64 36.5057C400.386 36.0795 400.069 35.7185 399.69 35.4226C399.311 35.1267 398.879 34.9047 398.394 34.7567C397.915 34.6029 397.397 34.5259 396.84 34.5259C395.852 34.5259 394.976 34.7745 394.212 35.2717C393.449 35.7629 392.851 36.485 392.419 37.4379C391.987 38.3848 391.771 39.5419 391.771 40.9091C391.771 42.3 391.987 43.4718 392.419 44.4247C392.857 45.3717 393.455 46.0878 394.212 46.5732C394.976 47.0526 395.849 47.2923 396.831 47.2923C397.376 47.2923 397.885 47.2212 398.358 47.0792C398.838 46.9312 399.267 46.7152 399.646 46.4311C400.03 46.147 400.353 45.7978 400.613 45.3835C400.88 44.9692 401.063 44.4957 401.164 43.9631L404.484 43.9808C404.36 44.8449 404.091 45.6558 403.676 46.4134C403.268 47.1709 402.732 47.8397 402.069 48.4197C401.406 48.9938 400.631 49.4437 399.743 49.7692C398.856 50.0888 397.87 50.2486 396.787 50.2486C395.189 50.2486 393.763 49.8787 392.508 49.1388C391.253 48.399 390.265 47.3307 389.543 45.9339C388.821 44.5372 388.46 42.8622 388.46 40.9091C388.46 38.95 388.824 37.2751 389.552 35.8842C390.28 34.4875 391.271 33.4192 392.526 32.6793C393.78 31.9395 395.201 31.5696 396.787 31.5696C397.799 31.5696 398.74 31.7116 399.61 31.9957C400.48 32.2798 401.256 32.6971 401.936 33.2475C402.617 33.792 403.176 34.4608 403.614 35.2539C404.058 36.0411 404.348 36.9407 404.484 37.9528ZM408 50V31.8182H411.294V39.5153H419.719V31.8182H423.022V50H419.719V42.2763H411.294V50H408ZM427.104 50V31.8182H438.929V34.5792H430.398V39.5153H438.317V42.2763H430.398V47.239H439V50H427.104ZM442.789 50V31.8182H449.608C451.004 31.8182 452.176 32.0608 453.123 32.5462C454.076 33.0315 454.795 33.7121 455.281 34.5881C455.772 35.4581 456.017 36.4731 456.017 37.6332C456.017 38.7991 455.769 39.8112 455.272 40.6694C454.78 41.5217 454.055 42.1816 453.097 42.6491C452.138 43.1108 450.96 43.3416 449.563 43.3416H444.707V40.6072H449.119C449.936 40.6072 450.605 40.4948 451.126 40.2699C451.647 40.0391 452.031 39.7047 452.28 39.2667C452.534 38.8228 452.662 38.2783 452.662 37.6332C452.662 36.988 452.534 36.4376 452.28 35.9819C452.025 35.5202 451.638 35.171 451.117 34.9343C450.596 34.6916 449.924 34.5703 449.102 34.5703H446.083V50H442.789ZM452.182 41.7614L456.683 50H453.008L448.587 41.7614H452.182ZM459.549 50V31.8182H466.367C467.764 31.8182 468.936 32.0786 469.883 32.5994C470.836 33.1203 471.555 33.8364 472.04 34.7479C472.532 35.6534 472.777 36.6832 472.777 37.8374C472.777 39.0033 472.532 40.0391 472.04 40.9446C471.549 41.8501 470.824 42.5633 469.865 43.0842C468.906 43.5991 467.726 43.8565 466.323 43.8565H461.804V41.1488H465.879C466.696 41.1488 467.365 41.0067 467.885 40.7227C468.406 40.4386 468.791 40.0479 469.04 39.5508C469.294 39.0536 469.421 38.4825 469.421 37.8374C469.421 37.1922 469.294 36.6241 469.04 36.1328C468.791 35.6416 468.403 35.2598 467.877 34.9876C467.356 34.7094 466.684 34.5703 465.861 34.5703H462.843V50H459.549ZM492.384 40.9091C492.384 42.8681 492.018 44.546 491.284 45.9428C490.556 47.3337 489.561 48.399 488.301 49.1388C487.046 49.8787 485.623 50.2486 484.03 50.2486C482.438 50.2486 481.012 49.8787 479.751 49.1388C478.497 48.3931 477.502 47.3248 476.768 45.9339C476.04 44.5372 475.676 42.8622 475.676 40.9091C475.676 38.95 476.04 37.2751 476.768 35.8842C477.502 34.4875 478.497 33.4192 479.751 32.6793C481.012 31.9395 482.438 31.5696 484.03 31.5696C485.623 31.5696 487.046 31.9395 488.301 32.6793C489.561 33.4192 490.556 34.4875 491.284 35.8842C492.018 37.2751 492.384 38.95 492.384 40.9091ZM489.073 40.9091C489.073 39.5301 488.857 38.3671 488.425 37.4201C487.999 36.4672 487.407 35.7481 486.649 35.2628C485.892 34.7715 485.019 34.5259 484.03 34.5259C483.042 34.5259 482.169 34.7715 481.411 35.2628C480.654 35.7481 480.059 36.4672 479.627 37.4201C479.201 38.3671 478.988 39.5301 478.988 40.9091C478.988 42.2881 479.201 43.4541 479.627 44.407C480.059 45.3539 480.654 46.073 481.411 46.5643C482.169 47.0496 483.042 47.2923 484.03 47.2923C485.019 47.2923 485.892 47.0496 486.649 46.5643C487.407 46.073 487.999 45.3539 488.425 44.407C488.857 43.4541 489.073 42.2881 489.073 40.9091ZM495.998 50V31.8182H502.817C504.213 31.8182 505.385 32.0608 506.332 32.5462C507.285 33.0315 508.004 33.7121 508.49 34.5881C508.981 35.4581 509.226 36.4731 509.226 37.6332C509.226 38.7991 508.978 39.8112 508.481 40.6694C507.989 41.5217 507.264 42.1816 506.306 42.6491C505.347 43.1108 504.169 43.3416 502.772 43.3416H497.916V40.6072H502.328C503.145 40.6072 503.814 40.4948 504.335 40.2699C504.856 40.0391 505.24 39.7047 505.489 39.2667C505.743 38.8228 505.871 38.2783 505.871 37.6332C505.871 36.988 505.743 36.4376 505.489 35.9819C505.234 35.5202 504.847 35.171 504.326 34.9343C503.805 34.6916 503.133 34.5703 502.311 34.5703H499.292V50H495.998ZM505.391 41.7614L509.892 50H506.217L501.796 41.7614H505.391ZM511.959 34.5792V31.8182H526.466V34.5792H520.846V50H517.579V34.5792H511.959ZM529.9 50H526.384L532.785 31.8182H536.851L543.261 50H539.745L534.889 35.5469H534.747L529.9 50ZM530.015 42.8711H539.603V45.5167H530.015V42.8711ZM546.156 50V31.8182H549.449V47.239H557.457V50H546.156Z" fill="#0D3152" fill-opacity="0.55"></path>
  </g>
  <defs>
    <clipPath id="clip0_845_2">
      <rect width="883" height="175" fill="white"></rect>
    </clipPath>
  </defs>
</svg>
