<?xml version="1.0" encoding="UTF-8"?>
<svg xmlns="http://www.w3.org/2000/svg" width="200" height="70" viewBox="0 0 200 70" fill="none">
  <path d="M41 58.5352L41.8067 58.3057C42.0421 58.2387 42.2462 58.1527 42.4188 58.0443C42.5915 57.9359 42.7578 57.767 42.9179 57.5374C43.078 57.3079 43.2412 56.9955 43.4013 56.6034C43.5614 56.2113 43.7623 55.6758 43.9977 54.9968L50.486 36.7373H53.7128L60.3957 55.0956C60.6091 55.7077 60.8006 56.2049 60.9607 56.5875C61.1208 56.97 61.284 57.2824 61.4441 57.5215C61.6042 57.7606 61.7705 57.9487 61.9432 58.0794C62.1158 58.2101 62.3199 58.3089 62.5553 58.3758L63.2333 58.5384V59.4565H52.4823V58.5384L53.3864 58.3089C53.8164 58.2005 54.1177 58.0411 54.2904 57.8339C54.463 57.6267 54.5478 57.3494 54.5478 56.9987C54.5478 56.715 54.4881 56.3643 54.3689 55.9499C54.2496 55.5355 54.1052 55.086 53.9325 54.6047L53.1258 52.2776H46.7004L45.925 54.6366C45.7744 55.0956 45.6551 55.51 45.5703 55.883C45.4856 56.256 45.4416 56.5843 45.4416 56.868C45.4416 57.327 45.5484 57.649 45.7649 57.8339C45.9784 58.0188 46.3362 58.1782 46.8291 58.3089L47.7331 58.5384V59.4565H41V58.5384V58.5352ZM47.1649 50.8304H52.6518L49.9712 42.8323H49.8111L47.1649 50.8304Z" fill="#395BB6"></path>
  <path d="M70.086 59.8485C69.2887 59.8485 68.5102 59.6955 67.7443 59.3894C66.9815 59.0834 66.3035 58.5989 65.7102 57.9295C65.117 57.2632 64.6461 56.3993 64.2914 55.341C63.9367 54.2795 63.7578 53.0076 63.7578 51.5221C63.7578 49.8166 64.0121 48.363 64.5174 47.1612C65.0228 45.9594 65.7008 44.9712 66.5515 44.1934C67.4022 43.4188 68.3909 42.8545 69.521 42.5039C70.651 42.1532 71.8501 41.9779 73.1213 41.9779C73.5514 41.9779 73.9814 42.0098 74.4115 42.0767C74.8415 42.1437 75.2276 42.2297 75.5729 42.3381C75.5509 42.099 75.5415 41.8472 75.5415 41.5826C75.5195 41.3435 75.5101 41.0853 75.5101 40.8112V38.8922C75.5101 38.5001 75.4975 38.194 75.4787 37.9741C75.4567 37.7573 75.4097 37.5756 75.3343 37.4322C75.259 37.2887 75.1554 37.174 75.0267 37.0879C74.898 37.0018 74.7254 36.903 74.5088 36.7914L73.1841 36.071V35.3155L80.4163 34.6588L80.7396 34.9202C80.7176 35.2262 80.6957 35.5769 80.6737 35.969C80.6517 36.3196 80.6423 36.7277 80.6423 37.1995V55.5099C80.6423 55.902 80.6517 56.2272 80.6737 56.4758C80.6957 56.7277 80.7428 56.9253 80.8181 57.0656C80.8934 57.209 81.0002 57.327 81.1414 57.4258C81.2827 57.5246 81.4679 57.6171 81.7064 57.7031L82.6418 58.0952V58.8826L75.959 59.8325L75.6043 59.5711L75.6702 57.7031H75.5415C74.8541 58.3152 74.0568 58.822 73.1527 59.2269C72.2487 59.6317 71.2254 59.8325 70.086 59.8325V59.8485ZM72.798 57.26C73.4635 57.26 74.0191 57.1676 74.4617 56.9827C74.9011 56.7978 75.2527 56.6512 75.5101 56.5396V44.6716C75.2307 44.3209 74.8917 44.0053 74.4931 43.7216C74.0944 43.4379 73.5953 43.2945 72.9926 43.2945C72.39 43.2945 71.8783 43.4156 71.3949 43.6547C70.9115 43.8969 70.4972 44.2954 70.1519 44.8501C69.8066 45.4079 69.5398 46.1411 69.3452 47.0464C69.1506 47.955 69.0532 49.0834 69.0532 50.4382C69.0532 51.793 69.1349 52.8099 69.2949 53.6834C69.455 54.5568 69.6936 55.2581 70.0044 55.7809C70.3151 56.3069 70.7043 56.683 71.1658 56.9126C71.6272 57.1421 72.1702 57.2568 72.7949 57.2568L72.798 57.26Z" fill="#395BB6"></path>
  <path d="M84.5156 46.0771C84.321 45.618 84.1547 45.2355 84.0165 44.9295C83.8753 44.6234 83.7309 44.3716 83.5802 44.174C83.4296 43.9763 83.2789 43.8297 83.1282 43.7309C82.9775 43.6321 82.7955 43.5492 82.5789 43.4854L81.9668 43.2878V42.4366H91.6819V43.2878L90.8093 43.5173C90.464 43.6257 90.2129 43.7755 90.0496 43.9604C89.8895 44.1453 89.8079 44.4481 89.8079 44.8625C89.8079 45.1016 89.8456 45.3662 89.9209 45.6499C89.9963 45.9336 90.0999 46.262 90.2286 46.6317L92.9406 54.2058H93.1007L95.7155 46.6317C95.9948 45.8667 96.1361 45.2546 96.1361 44.7956C96.1361 44.4226 96.0545 44.1453 95.8944 43.9604C95.7343 43.7755 95.48 43.6289 95.1348 43.5173L94.2621 43.2878V42.4366H100.236V43.2878L99.6235 43.4854C99.4069 43.5524 99.2186 43.6448 99.0585 43.7628C98.8984 43.8839 98.7477 44.0465 98.6065 44.2537C98.4652 44.4609 98.3145 44.7414 98.1544 45.0889C97.9944 45.4395 97.8154 45.8858 97.6208 46.4341L92.6173 59.4497H89.8739L84.5156 46.0739V46.0771Z" fill="#395BB6"></path>
  <path d="M100.431 58.5703L101.269 58.3408C101.527 58.2739 101.737 58.2037 101.9 58.1272C102.06 58.0507 102.186 57.9455 102.271 57.8148C102.355 57.6841 102.409 57.5152 102.431 57.308C102.453 57.1008 102.462 56.8234 102.462 56.4728V46.2783C102.462 45.9277 102.45 45.6504 102.431 45.4431C102.409 45.2359 102.355 45.0606 102.271 44.9172C102.186 44.7737 102.073 44.6494 101.932 44.541C101.79 44.4326 101.615 44.3019 101.398 44.1489L100.334 43.4285V42.7718L107.403 41.9844L107.726 42.2139C107.682 42.7176 107.651 43.2755 107.629 43.8875C107.607 44.4996 107.598 45.1977 107.598 45.9851V56.476C107.598 56.8489 107.607 57.1422 107.629 57.3622C107.651 57.5821 107.704 57.7511 107.789 57.869C107.874 57.9902 107.999 58.0826 108.159 58.1464C108.319 58.2133 108.53 58.2771 108.79 58.344L109.628 58.5735V59.4597H100.428V58.5735L100.431 58.5703ZM104.885 40.3746C104.088 40.3746 103.416 40.1228 102.867 39.6191C102.318 39.1154 102.045 38.4715 102.045 37.6841C102.045 36.8968 102.318 36.221 102.867 35.7173C103.416 35.2136 104.088 34.9618 104.885 34.9618C105.683 34.9618 106.354 35.2136 106.904 35.7173C107.453 36.221 107.726 36.8744 107.726 37.6841C107.726 38.4938 107.453 39.1154 106.904 39.6191C106.354 40.1228 105.683 40.3746 104.885 40.3746Z" fill="#395BB6"></path>
  <path d="M116.15 59.8483C115.202 59.8483 114.282 59.7814 113.391 59.6507C112.496 59.52 111.727 59.3542 111.083 59.1598L110.857 54.0466H111.761C112.107 54.7033 112.446 55.2803 112.779 55.784C113.111 56.2876 113.472 56.7881 113.861 57.2918C114.185 57.7062 114.561 58.0186 114.991 58.2258C115.422 58.433 115.98 58.5382 116.671 58.5382C117.446 58.5382 118.087 58.3405 118.592 57.9484C119.097 57.5563 119.352 56.9762 119.352 56.2111C119.352 55.8413 119.286 55.5066 119.157 55.2102C119.028 54.9137 118.812 54.6491 118.51 54.4068C118.209 54.1678 117.81 53.9255 117.314 53.6864C116.818 53.4473 116.216 53.1827 115.506 52.899C114.044 52.3539 112.901 51.6686 112.085 50.8493C111.266 50.03 110.857 48.9111 110.857 47.4894C110.857 46.702 111.008 45.9752 111.309 45.309C111.611 44.6427 112.053 44.0626 112.634 43.5716C113.215 43.0807 113.937 42.6918 114.797 42.4081C115.657 42.1244 116.636 41.981 117.735 41.981C118.661 41.981 119.512 42.0415 120.284 42.1627C121.059 42.2838 121.684 42.4304 122.155 42.6058L122.349 47.0654H121.477C121.153 46.4821 120.846 45.972 120.557 45.5385C120.268 45.105 119.96 44.7033 119.637 44.3367C119.27 43.9255 118.912 43.6482 118.557 43.5079C118.203 43.3676 117.735 43.2975 117.154 43.2975C116.467 43.2975 115.911 43.4824 115.491 43.8522C115.07 44.222 114.86 44.7416 114.86 45.4174C114.86 45.7234 114.904 46.0039 114.988 46.2653C115.073 46.5267 115.239 46.7753 115.487 47.0144C115.735 47.2535 116.062 47.4862 116.473 47.7157C116.881 47.9421 117.408 48.178 118.055 48.417C119.992 49.1375 121.37 49.9312 122.186 50.7951C123.002 51.659 123.413 52.7237 123.413 53.9924C123.413 55.7202 122.795 57.1292 121.558 58.2226C120.321 59.316 118.52 59.8611 116.15 59.8611V59.8483Z" fill="#395BB6"></path>
  <path d="M133.389 59.8485C132.228 59.8485 131.113 59.6668 130.049 59.3065C128.985 58.9463 128.053 58.3949 127.255 57.6521C126.458 56.9094 125.824 55.9849 125.35 54.8819C124.876 53.779 124.641 52.472 124.641 50.9642C124.641 49.4564 124.892 48.0346 125.4 46.8998C125.906 45.7649 126.568 44.8341 127.384 44.1137C128.2 43.3933 129.133 42.8577 130.178 42.5071C131.22 42.1564 132.293 41.9811 133.389 41.9811C134.55 41.9811 135.665 42.1628 136.729 42.523C137.793 42.8832 138.732 43.4315 139.538 44.1615C140.345 44.8947 140.985 45.8128 141.459 46.9157C141.933 48.0187 142.169 49.3129 142.169 50.8016C142.169 52.3764 141.921 53.7312 141.425 54.866C140.929 56.004 140.273 56.9412 139.457 57.684C138.637 58.4267 137.702 58.975 136.647 59.3225C135.593 59.6731 134.506 59.8485 133.386 59.8485H133.389ZM133.486 58.5383C133.96 58.5383 134.4 58.4459 134.811 58.261C135.219 58.0761 135.564 57.7159 135.844 57.1835C136.123 56.6511 136.343 55.8988 136.506 54.9298C136.666 53.9607 136.748 52.6951 136.748 51.1268C136.748 49.4723 136.672 48.1335 136.522 47.1134C136.371 46.0901 136.145 45.2963 135.844 44.7321C135.542 44.1679 135.175 43.7853 134.745 43.5909C134.315 43.3964 133.828 43.2976 133.292 43.2976C132.755 43.2976 132.319 43.406 131.92 43.626C131.521 43.8427 131.189 44.2189 130.919 44.7512C130.649 45.2836 130.438 46.0136 130.288 46.938C130.137 47.8625 130.062 49.0228 130.062 50.4127C130.062 52.0895 130.131 53.4538 130.272 54.509C130.413 55.5641 130.62 56.3929 130.903 56.989C131.182 57.5883 131.537 57.9964 131.967 58.2131C132.397 58.4299 132.902 58.5383 133.483 58.5383H133.486Z" fill="#395BB6"></path>
  <path fill-rule="evenodd" clip-rule="evenodd" d="M107.857 14.876C106.743 14.876 105.848 15.1788 104.919 15.6315C104.926 13.0047 104.96 10.7159 105.023 9.85205L99.6081 10.8944V11.3822L100.139 11.4523C100.895 11.5543 101.184 11.9942 101.275 13.0016C101.448 14.927 101.419 25.2553 101.275 26.9097C102.735 27.2381 104.307 27.4867 105.889 27.4867C110.18 27.4867 112.767 24.8409 112.767 20.649C112.767 17.2955 110.67 14.8823 107.854 14.8823L107.857 14.876ZM105.974 26.6292C105.663 26.6292 105.271 26.5814 105.051 26.54C104.969 25.3796 104.913 20.6012 104.919 16.4252C105.415 16.2595 105.751 16.218 106.184 16.218C107.958 16.218 108.962 18.2614 108.962 20.8466C108.962 24.13 107.732 26.626 105.971 26.626L105.974 26.6292ZM79.2644 15.0067L78.4169 15.2394C77.6824 12.7848 76.5053 11.3981 74.3174 11.3981H71.5112C71.3794 12.9633 71.3323 15.5677 71.3448 18.2773L73.2376 18.2167C74.4963 18.1753 75.0206 17.2445 75.3219 15.8642H76.0313V21.6053H75.3219C75.0206 20.2282 74.4901 19.3006 73.2376 19.2528L71.3542 19.1922C71.3762 21.2483 71.4296 23.0047 71.5206 24.0471C71.6524 25.5773 72.0636 26.2499 73.1497 26.4061L74.1134 26.5081V27.1935H64.957V26.5081L65.7135 26.4061C66.7996 26.2499 67.2139 25.5773 67.3426 24.0471C67.5498 21.5288 67.5843 16.2913 67.3426 13.3681C67.2108 11.838 66.7996 11.1654 65.7135 11.0092L64.957 10.9072V10.2186H79.1891L79.2644 15.0067ZM83.8191 14.7389C87.8652 14.7389 89.871 17.474 89.871 21.0762C89.871 24.6783 87.6015 27.4804 83.5554 27.4804C79.5093 27.4804 77.4941 24.7453 77.4941 21.1431C77.4941 17.5409 79.7635 14.7389 83.8159 14.7389H83.8191ZM83.6056 15.5199C81.8164 15.5199 81.3142 17.933 81.3142 21.108C81.3142 24.283 82.1052 26.6962 83.7626 26.6962C85.5518 26.6962 86.054 24.283 86.054 21.108C86.054 17.933 85.263 15.5199 83.6056 15.5199ZM113.762 21.226C113.755 17.8852 115.874 14.7516 120.043 14.7516C123.433 14.7516 125.059 17.2604 125.071 20.5406H117.503C117.422 23.518 118.935 25.7048 121.823 25.7048C123.094 25.7048 123.784 25.3892 124.553 24.8058L124.911 25.2298C124.073 26.3901 122.319 27.4931 119.993 27.4931C116.339 27.4867 113.768 24.9078 113.762 21.226ZM117.532 19.6895L121.33 19.6066C121.352 17.933 121.082 15.539 119.713 15.539C118.345 15.539 117.566 17.8023 117.532 19.6895ZM134.796 18.4972L134.178 18.663C133.518 16.5304 132.514 15.6251 131.048 15.6251C130.072 15.6251 129.362 16.3583 129.362 17.423C129.362 18.4877 130.153 19.036 132.445 19.919C134.557 20.7351 135.395 21.6754 135.395 23.3809C135.395 25.9311 133.434 27.4963 130.216 27.4963C128.669 27.4963 126.949 27.152 125.944 26.7504L125.834 23.2247L126.453 23.0589C127.341 25.5263 128.496 26.4252 130.015 26.4252C131.309 26.4252 132.03 25.5071 132.03 24.5253C132.03 23.5435 131.487 23.0016 129.422 22.262C127.504 21.5766 126.114 20.7382 126.114 18.5993C126.114 16.4603 127.956 14.7453 131.004 14.7453C132.42 14.7453 133.763 14.9907 134.664 15.4051L134.796 18.4972ZM99.109 18.4016C97.4704 17.305 95.7032 17.7832 95.3391 18.3825C95.2167 20.3589 95.2418 23.3809 95.3799 24.9046C95.4678 25.912 95.7597 26.3519 96.5162 26.4539L97.4924 26.524V27.2094H89.9809V26.524L90.5113 26.4539C91.2678 26.3519 91.5566 25.912 91.6477 24.9046C91.7921 23.2534 91.8203 19.8106 91.6477 17.882C91.5598 16.8747 91.2678 16.4348 90.5113 16.3328L89.9809 16.2626V15.7749L95.3736 14.7325L95.3108 17.5441C96.5696 14.6496 99.0588 14.2735 100.427 15.0832L99.1058 18.4016H99.109Z" fill="#181716"></path>
  <path fill-rule="evenodd" clip-rule="evenodd" d="M157.113 47.2604C154.771 45.692 152.245 46.3774 151.724 47.2317C151.548 50.056 151.585 54.3786 151.783 56.5559C151.912 57.9968 152.323 58.6247 153.406 58.7714L154.803 58.8702V59.852H144.064V58.8702L144.821 58.7714C145.904 58.6247 146.315 57.9968 146.444 56.5559C146.651 54.1938 146.689 49.2719 146.444 46.5176C146.315 45.0768 145.904 44.4488 144.821 44.3021L144.064 44.2033V43.5084L151.774 42.0165L151.686 46.0363C153.484 41.8986 157.047 41.3598 159.003 42.517L157.113 47.2636V47.2604Z" fill="#395BB6"></path>
</svg>
