<?xml version="1.0" encoding="UTF-8"?>
<svg xmlns="http://www.w3.org/2000/svg" xmlns:xlink="http://www.w3.org/1999/xlink" viewBox="0 0 785 320">
  <defs>
    <style>.a{fill:none;}.b{isolation:isolate;}.c{clip-path:url(#a);}.d{fill:#003517;}.e{fill:url(#b);}.f{fill:url(#c);}.g{fill:url(#d);}.h{fill:url(#e);}.i{fill:url(#f);}.j{fill:url(#g);}.k{mix-blend-mode:overlay;fill:url(#h);}.l{fill:url(#i);}.m{fill:url(#j);}.n{fill:#fff;}.o{fill:#aaa;}.p{clip-path:url(#k);}.q,.r,.s,.t,.v,.w{opacity:0.45;}.q{fill:url(#l);}.r{fill:url(#m);}.s{fill:url(#o);}.t{fill:url(#p);}.u{clip-path:url(#q);}.v{fill:url(#r);}.w{fill:url(#s);}</style>
    <clipPath id="a">
      <circle class="a" cx="151.54" cy="159.77" r="83"></circle>
    </clipPath>
    <radialGradient id="b" cx="649.75" cy="-235.73" r="87.05" gradientTransform="matrix(0.56, 0.31, -0.3, 0.58, -287.22, 96.12)" gradientUnits="userSpaceOnUse">
      <stop offset="0" stop-color="#007d3c"></stop>
      <stop offset="0" stop-color="#007d3c"></stop>
      <stop offset="0.02" stop-color="#007d3c" stop-opacity="0.98"></stop>
      <stop offset="0.34" stop-color="#007d3c" stop-opacity="0.56"></stop>
      <stop offset="0.62" stop-color="#007d3c" stop-opacity="0.25"></stop>
      <stop offset="0.85" stop-color="#007d3c" stop-opacity="0.07"></stop>
      <stop offset="0.99" stop-color="#007d3c" stop-opacity="0"></stop>
    </radialGradient>
    <radialGradient id="c" cx="562.22" cy="-108.76" r="253.1" gradientTransform="matrix(0.56, 0.31, -0.3, 0.58, -287.22, 96.12)" gradientUnits="userSpaceOnUse">
      <stop offset="0" stop-color="#5ec44d"></stop>
      <stop offset="0.34" stop-color="#5eb94d" stop-opacity="0.6"></stop>
      <stop offset="0.66" stop-color="#5eb14d" stop-opacity="0.28"></stop>
      <stop offset="0.88" stop-color="#5eab4d" stop-opacity="0.08"></stop>
      <stop offset="1" stop-color="#5ea94d" stop-opacity="0"></stop>
    </radialGradient>
    <radialGradient id="d" cx="194.44" cy="179.06" r="63.99" gradientTransform="matrix(0, 0.97, -2.18, 0, 603.11, -64.05)" gradientUnits="userSpaceOnUse">
      <stop offset="0" stop-color="#0bb3d0" stop-opacity="0.5"></stop>
      <stop offset="0.28" stop-color="#0bb3d0" stop-opacity="0.38"></stop>
      <stop offset="0.87" stop-color="#0bb3d0" stop-opacity="0.07"></stop>
      <stop offset="1" stop-color="#0bb3d0" stop-opacity="0"></stop>
    </radialGradient>
    <radialGradient id="e" cx="447.14" cy="-83.44" r="242.39" gradientTransform="matrix(0.56, 0.31, -0.3, 0.58, -287.22, 96.12)" gradientUnits="userSpaceOnUse">
      <stop offset="0" stop-color="#cbff66"></stop>
      <stop offset="0.36" stop-color="#cbff66" stop-opacity="0.62"></stop>
      <stop offset="0.8" stop-color="#cbff66" stop-opacity="0.18"></stop>
      <stop offset="1" stop-color="#cbff66" stop-opacity="0"></stop>
    </radialGradient>
    <radialGradient id="f" cx="159.58" cy="160.4" r="49.11" gradientTransform="translate(-58.67 -263.35) scale(1.17 2.06)" gradientUnits="userSpaceOnUse">
      <stop offset="0" stop-color="#1bb40b" stop-opacity="0.8"></stop>
      <stop offset="0.21" stop-color="#1bb40b" stop-opacity="0.66"></stop>
      <stop offset="0.65" stop-color="#1bb40b" stop-opacity="0.3"></stop>
      <stop offset="1" stop-color="#1bb40b" stop-opacity="0"></stop>
    </radialGradient>
    <radialGradient id="g" cx="531.05" cy="-262.72" r="163.77" gradientTransform="matrix(0.56, 0.31, -0.3, 0.58, -287.22, 96.12)" gradientUnits="userSpaceOnUse">
      <stop offset="0" stop-color="#cbff66"></stop>
      <stop offset="0.06" stop-color="#cbff66" stop-opacity="0.93"></stop>
      <stop offset="0.33" stop-color="#cbff66" stop-opacity="0.6"></stop>
      <stop offset="0.56" stop-color="#cbff66" stop-opacity="0.34"></stop>
      <stop offset="0.76" stop-color="#cbff66" stop-opacity="0.16"></stop>
      <stop offset="0.91" stop-color="#cbff66" stop-opacity="0.04"></stop>
      <stop offset="1" stop-color="#cbff66" stop-opacity="0"></stop>
    </radialGradient>
    <radialGradient id="h" cx="528.18" cy="-253.41" r="63.99" gradientTransform="matrix(0.56, 0.31, -0.3, 0.58, -287.22, 96.12)" gradientUnits="userSpaceOnUse">
      <stop offset="0" stop-color="#b7ff47" stop-opacity="0.4"></stop>
      <stop offset="0.09" stop-color="#b7ff47" stop-opacity="0.34"></stop>
      <stop offset="0.41" stop-color="#b7ff47" stop-opacity="0.16"></stop>
      <stop offset="0.66" stop-color="#b7ff47" stop-opacity="0.04"></stop>
      <stop offset="0.8" stop-color="#b7ff47" stop-opacity="0"></stop>
    </radialGradient>
    <radialGradient id="i" cx="728.73" cy="-365.57" r="165.65" gradientTransform="matrix(0.56, 0.31, -0.3, 0.58, -287.22, 96.12)" gradientUnits="userSpaceOnUse">
      <stop offset="0" stop-color="#0bb3d0"></stop>
      <stop offset="0.09" stop-color="#0bb3d0" stop-opacity="0.89"></stop>
      <stop offset="0.42" stop-color="#0bb3d0" stop-opacity="0.51"></stop>
      <stop offset="0.69" stop-color="#0bb3d0" stop-opacity="0.24"></stop>
      <stop offset="0.89" stop-color="#0bb3d0" stop-opacity="0.07"></stop>
      <stop offset="1" stop-color="#0bb3d0" stop-opacity="0"></stop>
    </radialGradient>
    <radialGradient id="j" cx="726.66" cy="-344.11" r="53.4" gradientTransform="matrix(0.56, 0.31, -0.3, 0.58, -287.22, 96.12)" gradientUnits="userSpaceOnUse">
      <stop offset="0" stop-color="#0bb3d0"></stop>
      <stop offset="0.16" stop-color="#0bb3d0" stop-opacity="0.78"></stop>
      <stop offset="0.37" stop-color="#0bb3d0" stop-opacity="0.5"></stop>
      <stop offset="0.57" stop-color="#0bb3d0" stop-opacity="0.29"></stop>
      <stop offset="0.75" stop-color="#0bb3d0" stop-opacity="0.13"></stop>
      <stop offset="0.9" stop-color="#0bb3d0" stop-opacity="0.03"></stop>
      <stop offset="1" stop-color="#0bb3d0" stop-opacity="0"></stop>
    </radialGradient>
    <clipPath id="k">
      <path class="a" d="M209,44.52a86.43,86.43,0,0,0-9.06-13.9,64.42,64.42,0,0,0-5.49-6c-1-.9-2-1.86-3-2.67-.53-.42-1-.86-1.57-1.26l-1.63-1.15a40.29,40.29,0,0,0-6.89-3.85c-1.18-.57-2.43-1-3.65-1.4-.62-.2-1.25-.35-1.87-.53l-.94-.25-1-.18a37.16,37.16,0,0,0-15.36.24A49.11,49.11,0,0,0,144,19.45a75.9,75.9,0,0,0-12.81,9.75,129.47,129.47,0,0,0-20.72,25.41l-1.13,1.74-1.06,1.78-2.12,3.56c-1.33,2.44-2.73,4.82-4,7.31C99.6,73.9,97.28,79,95,84a263.61,263.61,0,0,0-11.16,31.47,298.67,298.67,0,0,0-11.24,65.86c-.19,2.78-.26,5.56-.38,8.34s-.08,5.56-.13,8.35c.07,5.55.19,11.11.62,16.65s1,11,1.78,16.51,1.87,10.88,3.16,16.22A123.28,123.28,0,0,0,89.05,277.9a70.31,70.31,0,0,0,9.11,12.9A45.54,45.54,0,0,0,110,300.41a33.83,33.83,0,0,0,14.18,4.23,36,36,0,0,0,3.75.09c1.25-.1,2.5-.13,3.75-.34a41.83,41.83,0,0,0,7.47-1.72l1.84-.62,1.82-.73c1.22-.46,2.38-1.1,3.59-1.63a67.32,67.32,0,0,0,6.88-4.05,88,88,0,0,0,12.61-10.31,146.85,146.85,0,0,0,20.81-25.91c3-4.69,5.87-9.55,8.52-14.51s5.18-10,7.52-15.15h0a2.08,2.08,0,0,1,3.85,1.59q-3,8.07-6.57,16c-2.41,5.23-5,10.39-7.89,15.42A149.79,149.79,0,0,1,171.56,291a95.34,95.34,0,0,1-13.36,11.79,77.6,77.6,0,0,1-7.65,4.89c-1.37.68-2.69,1.46-4.11,2l-2.11,1-2.18.82c-.71.3-1.46.53-2.2.76s-1.49.48-2.25.68c-1.53.37-3,.76-4.62,1s-3.14.4-4.72.55a45,45,0,0,1-4.79,0,43.85,43.85,0,0,1-18.43-5,55.71,55.71,0,0,1-14.9-11.42,79.88,79.88,0,0,1-10.8-14.74,133.66,133.66,0,0,1-13-33.11l-1-4.29c-.33-1.43-.6-2.87-.9-4.31-.63-2.87-1-5.77-1.56-8.66-.84-5.79-1.58-11.59-2-17.41s-.65-11.65-.74-17.47.08-11.64.45-17.44a306.11,306.11,0,0,1,4.12-34.57,285,285,0,0,1,8-33.85c6.79-22.18,16-43.83,29.12-63.27a154.84,154.84,0,0,1,10.64-14.06A110.3,110.3,0,0,1,125,22.28a85,85,0,0,1,14.72-10.35A56.44,56.44,0,0,1,157,5.69a44.83,44.83,0,0,1,18.52.6l1.13.27,1.11.36c.73.24,1.48.47,2.2.73,1.43.6,2.89,1.13,4.24,1.86a45.19,45.19,0,0,1,7.75,4.88,60.4,60.4,0,0,1,12.25,13,90.57,90.57,0,0,1,8.55,15.3A2.09,2.09,0,0,1,209,44.53Z"></path>
    </clipPath>
    <linearGradient id="l" x1="189.55" y1="161.47" x2="179.91" y2="134.05" gradientTransform="matrix(2.18, 0.31, -0.77, 0.86, -206.39, 87.45)" gradientUnits="userSpaceOnUse">
      <stop offset="0.15" stop-opacity="0"></stop>
      <stop offset="0.95" stop-opacity="0.35"></stop>
    </linearGradient>
    <linearGradient id="m" x1="132.42" y1="-0.08" x2="122.72" y2="-27.48" gradientTransform="matrix(2.18, 0.14, -0.77, 0.39, -205.89, 251.74)" gradientUnits="userSpaceOnUse">
      <stop offset="0.15" stop-opacity="0"></stop>
      <stop offset="0.95" stop-opacity="0.3"></stop>
    </linearGradient>
    <linearGradient id="o" x1="117.87" y1="-42.8" x2="108.23" y2="-70.22" gradientTransform="matrix(2.18, 0.31, -0.77, 0.86, -186.41, 78.14)" xlink:href="#l"></linearGradient>
    <linearGradient id="p" x1="-27.55" y1="-453.91" x2="-37.25" y2="-481.31" gradientTransform="matrix(2.18, 0.14, -0.77, 0.39, -184.42, 242.67)" xlink:href="#m"></linearGradient>
    <clipPath id="q">
      <path class="a" d="M222.64,267.12a86.16,86.16,0,0,0,16.56-.9,66.2,66.2,0,0,0,8-1.73c1.28-.43,2.59-.78,3.83-1.29.62-.25,1.26-.47,1.87-.73l1.82-.84a41.15,41.15,0,0,0,6.78-4c1.08-.74,2-1.63,3-2.46.48-.44.93-.91,1.39-1.36l.69-.68.63-.74a37.24,37.24,0,0,0,7.48-13.42,49.27,49.27,0,0,0,2.13-15.54,76.18,76.18,0,0,0-2-16,129.64,129.64,0,0,0-11.64-30.66l-.95-1.84-1-1.81-2-3.62c-1.44-2.37-2.8-4.77-4.34-7.09-2.95-4.69-6.16-9.23-9.44-13.72a263.28,263.28,0,0,0-21.68-25.4,298.77,298.77,0,0,0-51.41-42.66c-2.31-1.56-4.69-3-7-4.5s-4.77-2.85-7.16-4.29c-4.85-2.72-9.72-5.39-14.73-7.79s-10.07-4.64-15.19-6.71S117.81,53.52,112.54,52a122.73,122.73,0,0,0-32.06-5.39A70.12,70.12,0,0,0,64.75,48a45.41,45.41,0,0,0-14.22,5.41A33.79,33.79,0,0,0,39.78,63.59a35.93,35.93,0,0,0-2,3.2c-.54,1.13-1.14,2.23-1.58,3.43A41.7,41.7,0,0,0,34,77.54l-.38,1.9-.27,1.94C33.13,82.67,33.1,84,33,85.3a66.79,66.79,0,0,0,.06,8,88,88,0,0,0,2.63,16.06,147,147,0,0,0,12,31c2.54,5,5.34,9.86,8.31,14.64s6.08,9.49,9.36,14.08h0a2.09,2.09,0,0,1-3.31,2.54Q56.56,165,51.52,158c-3.33-4.71-6.49-9.55-9.41-14.55A149.39,149.39,0,0,1,27.9,111.5,95.26,95.26,0,0,1,24.36,94,75.9,75.9,0,0,1,24,85c.09-1.53.08-3,.27-4.59l.24-2.3.37-2.29c.11-.77.27-1.53.45-2.29s.33-1.53.54-2.28a46.24,46.24,0,0,1,1.46-4.5c.51-1.49,1.22-2.92,1.88-4.37s1.47-2.83,2.38-4.15A43.78,43.78,0,0,1,45.05,44.7a56,56,0,0,1,17.33-7.19,80.36,80.36,0,0,1,18.18-2,133.42,133.42,0,0,1,35.18,5.27L120,42c1.41.43,2.79.92,4.19,1.38,2.8.89,5.52,2,8.27,3,5.44,2.17,10.84,4.43,16.07,7s10.41,5.26,15.5,8.09,10,5.89,14.87,9.11a305.4,305.4,0,0,1,27.88,20.85,284.08,284.08,0,0,1,25.31,23.88c15.82,17,30,35.74,40.24,56.85a155.72,155.72,0,0,1,6.85,16.24,110.92,110.92,0,0,1,4.71,17.13,85.55,85.55,0,0,1,1.6,17.92,56.67,56.67,0,0,1-3.21,18,44.74,44.74,0,0,1-9.78,15.74l-.8.85-.86.78c-.58.52-1.15,1.05-1.74,1.54-1.23.94-2.42,1.93-3.73,2.74a45.47,45.47,0,0,1-8.1,4.27,60.5,60.5,0,0,1-17.4,4.1,90.66,90.66,0,0,1-17.52-.24,2.09,2.09,0,0,1,.29-4.16Z"></path>
    </clipPath>
    <linearGradient id="r" x1="309.55" y1="194.24" x2="300.08" y2="166.76" gradientTransform="matrix(2.18, 0.31, -0.77, 0.86, -246.37, -48.36)" xlink:href="#l"></linearGradient>
    <linearGradient id="s" x1="281.32" y1="114.46" x2="271.85" y2="86.97" gradientTransform="matrix(2.18, 0.14, -0.77, 0.39, -251.7, 118.03)" xlink:href="#m"></linearGradient>
  </defs>
  <g class="b">
    <g class="c">
      <circle class="d" cx="151.54" cy="159.77" r="83"></circle>
      <ellipse class="e" cx="148.27" cy="158.21" rx="60.27" ry="62.35"></ellipse>
      <ellipse class="f" cx="61.38" cy="205.27" rx="160.94" ry="166.5"></ellipse>
      <ellipse class="g" cx="212.68" cy="125.07" rx="142.04" ry="63.36" transform="translate(-31.58 90.24) rotate(-22.34)"></ellipse>
      <ellipse class="h" cx="-10.88" cy="184.71" rx="155.68" ry="161.06"></ellipse>
      <ellipse class="i" cx="127.7" cy="67.14" rx="58.4" ry="103.02" transform="translate(-13.67 38.32) rotate(-16.21)"></ellipse>
      <ellipse class="j" cx="89.49" cy="106.09" rx="107.05" ry="110.75"></ellipse>
      <ellipse class="k" cx="85.11" cy="110.63" rx="41.43" ry="42.86"></ellipse>
      <ellipse class="l" cx="231.21" cy="106.85" rx="108.18" ry="111.92"></ellipse>
      <ellipse class="m" cx="223.68" cy="118.71" rx="34.85" ry="36.06"></ellipse>
    </g>
    <path class="n" d="M201.31,198.53c-11.73,14.16-28.94,23.24-48.5,23.24a62,62,0,1,1,44.59-105l-15.33,15.33a40.33,40.33,0,1,0-28.95,68.45A39.65,39.65,0,0,0,181,189.38V171.54H149.68V152h51.63Z"></path>
    <path class="o" d="M209,44.52a86.43,86.43,0,0,0-9.06-13.9,64.42,64.42,0,0,0-5.49-6c-1-.9-2-1.86-3-2.67-.53-.42-1-.86-1.57-1.26l-1.63-1.15a40.29,40.29,0,0,0-6.89-3.85c-1.18-.57-2.43-1-3.65-1.4-.62-.2-1.25-.35-1.87-.53l-.94-.25-1-.18a37.16,37.16,0,0,0-15.36.24A49.11,49.11,0,0,0,144,19.45a75.9,75.9,0,0,0-12.81,9.75,129.47,129.47,0,0,0-20.72,25.41l-1.13,1.74-1.06,1.78-2.12,3.56c-1.33,2.44-2.73,4.82-4,7.31C99.6,73.9,97.28,79,95,84a263.61,263.61,0,0,0-11.16,31.47,298.67,298.67,0,0,0-11.24,65.86c-.19,2.78-.26,5.56-.38,8.34s-.08,5.56-.13,8.35c.07,5.55.19,11.11.62,16.65s1,11,1.78,16.51,1.87,10.88,3.16,16.22A123.28,123.28,0,0,0,89.05,277.9a70.31,70.31,0,0,0,9.11,12.9A45.54,45.54,0,0,0,110,300.41a33.83,33.83,0,0,0,14.18,4.23,36,36,0,0,0,3.75.09c1.25-.1,2.5-.13,3.75-.34a41.83,41.83,0,0,0,7.47-1.72l1.84-.62,1.82-.73c1.22-.46,2.38-1.1,3.59-1.63a67.32,67.32,0,0,0,6.88-4.05,88,88,0,0,0,12.61-10.31,146.85,146.85,0,0,0,20.81-25.91c3-4.69,5.87-9.55,8.52-14.51s5.18-10,7.52-15.15h0a2.08,2.08,0,0,1,3.85,1.59q-3,8.07-6.57,16c-2.41,5.23-5,10.39-7.89,15.42A149.79,149.79,0,0,1,171.56,291a95.34,95.34,0,0,1-13.36,11.79,77.6,77.6,0,0,1-7.65,4.89c-1.37.68-2.69,1.46-4.11,2l-2.11,1-2.18.82c-.71.3-1.46.53-2.2.76s-1.49.48-2.25.68c-1.53.37-3,.76-4.62,1s-3.14.4-4.72.55a45,45,0,0,1-4.79,0,43.85,43.85,0,0,1-18.43-5,55.71,55.71,0,0,1-14.9-11.42,79.88,79.88,0,0,1-10.8-14.74,133.66,133.66,0,0,1-13-33.11l-1-4.29c-.33-1.43-.6-2.87-.9-4.31-.63-2.87-1-5.77-1.56-8.66-.84-5.79-1.58-11.59-2-17.41s-.65-11.65-.74-17.47.08-11.64.45-17.44a306.11,306.11,0,0,1,4.12-34.57,285,285,0,0,1,8-33.85c6.79-22.18,16-43.83,29.12-63.27a154.84,154.84,0,0,1,10.64-14.06A110.3,110.3,0,0,1,125,22.28a85,85,0,0,1,14.72-10.35A56.44,56.44,0,0,1,157,5.69a44.83,44.83,0,0,1,18.52.6l1.13.27,1.11.36c.73.24,1.48.47,2.2.73,1.43.6,2.89,1.13,4.24,1.86a45.19,45.19,0,0,1,7.75,4.88,60.4,60.4,0,0,1,12.25,13,90.57,90.57,0,0,1,8.55,15.3A2.09,2.09,0,0,1,209,44.53Z"></path>
    <g class="p">
      <rect class="q" x="64.72" y="257.59" width="34.65" height="28.35" transform="translate(17.46 -4.67) rotate(3.65)"></rect>
      <rect class="r" x="65.21" y="257.61" width="34.65" height="12.75" transform="translate(16.97 -4.72) rotate(3.65)"></rect>
    </g>
    <g class="p">
      <rect class="s" x="85.99" y="49.81" width="34.65" height="28.35" transform="matrix(0.97, 0.25, -0.25, 0.97, 19.69, -24.19)"></rect>
      <rect class="t" x="87.98" y="50.07" width="34.65" height="12.75" transform="translate(17.83 -24.94) rotate(14.75)"></rect>
    </g>
    <path class="o" d="M222.64,267.12a86.16,86.16,0,0,0,16.56-.9,66.2,66.2,0,0,0,8-1.73c1.28-.43,2.59-.78,3.83-1.29.62-.25,1.26-.47,1.87-.73l1.82-.84a41.15,41.15,0,0,0,6.78-4c1.08-.74,2-1.63,3-2.46.48-.44.93-.91,1.39-1.36l.69-.68.63-.74a37.24,37.24,0,0,0,7.48-13.42,49.27,49.27,0,0,0,2.13-15.54,76.18,76.18,0,0,0-2-16,129.64,129.64,0,0,0-11.64-30.66l-.95-1.84-1-1.81-2-3.62c-1.44-2.37-2.8-4.77-4.34-7.09-2.95-4.69-6.16-9.23-9.44-13.72a263.28,263.28,0,0,0-21.68-25.4,298.77,298.77,0,0,0-51.41-42.66c-2.31-1.56-4.69-3-7-4.5s-4.77-2.85-7.16-4.29c-4.85-2.72-9.72-5.39-14.73-7.79s-10.07-4.64-15.19-6.71S117.81,53.52,112.54,52a122.73,122.73,0,0,0-32.06-5.39A70.12,70.12,0,0,0,64.75,48a45.41,45.41,0,0,0-14.22,5.41A33.79,33.79,0,0,0,39.78,63.59a35.93,35.93,0,0,0-2,3.2c-.54,1.13-1.14,2.23-1.58,3.43A41.7,41.7,0,0,0,34,77.54l-.38,1.9-.27,1.94C33.13,82.67,33.1,84,33,85.3a66.79,66.79,0,0,0,.06,8,88,88,0,0,0,2.63,16.06,147,147,0,0,0,12,31c2.54,5,5.34,9.86,8.31,14.64s6.08,9.49,9.36,14.08h0a2.09,2.09,0,0,1-3.31,2.54Q56.56,165,51.52,158c-3.33-4.71-6.49-9.55-9.41-14.55A149.39,149.39,0,0,1,27.9,111.5,95.26,95.26,0,0,1,24.36,94,75.9,75.9,0,0,1,24,85c.09-1.53.08-3,.27-4.59l.24-2.3.37-2.29c.11-.77.27-1.53.45-2.29s.33-1.53.54-2.28a46.24,46.24,0,0,1,1.46-4.5c.51-1.49,1.22-2.92,1.88-4.37s1.47-2.83,2.38-4.15A43.78,43.78,0,0,1,45.05,44.7a56,56,0,0,1,17.33-7.19,80.36,80.36,0,0,1,18.18-2,133.42,133.42,0,0,1,35.18,5.27L120,42c1.41.43,2.79.92,4.19,1.38,2.8.89,5.52,2,8.27,3,5.44,2.17,10.84,4.43,16.07,7s10.41,5.26,15.5,8.09,10,5.89,14.87,9.11a305.4,305.4,0,0,1,27.88,20.85,284.08,284.08,0,0,1,25.31,23.88c15.82,17,30,35.74,40.24,56.85a155.72,155.72,0,0,1,6.85,16.24,110.92,110.92,0,0,1,4.71,17.13,85.55,85.55,0,0,1,1.6,17.92,56.67,56.67,0,0,1-3.21,18,44.74,44.74,0,0,1-9.78,15.74l-.8.85-.86.78c-.58.52-1.15,1.05-1.74,1.54-1.23.94-2.42,1.93-3.73,2.74a45.47,45.47,0,0,1-8.1,4.27,60.5,60.5,0,0,1-17.4,4.1,90.66,90.66,0,0,1-17.52-.24,2.09,2.09,0,0,1,.29-4.16Z"></path>
    <g class="u">
      <rect class="v" x="260.99" y="186.81" width="34.65" height="28.35" transform="translate(-62.21 244.54) rotate(-43.12)"></rect>
      <rect class="w" x="255.66" y="188.92" width="34.65" height="12.75" transform="translate(-59.76 239.36) rotate(-43.12)"></rect>
    </g>
    <path class="o" d="M23,167.66a86.45,86.45,0,0,0-7.5,14.8A62.1,62.1,0,0,0,13,190.23c-.27,1.33-.63,2.63-.8,4-.1.67-.22,1.33-.3,2l-.19,2a40.72,40.72,0,0,0,.12,7.89,38.27,38.27,0,0,0,.61,3.86c.14.63.32,1.26.48,1.88l.25.94.32.92a37.15,37.15,0,0,0,7.88,13.18,49.35,49.35,0,0,0,12.39,9.62,76.22,76.22,0,0,0,14.85,6.21A129.5,129.5,0,0,0,81,247.92l2.07.1,2.07,0,4.15.06c2.77-.07,5.54-.05,8.31-.23,5.54-.2,11.08-.71,16.6-1.31a264.18,264.18,0,0,0,32.84-6.07,299,299,0,0,0,62.65-23.19c2.51-1.23,5-2.56,7.42-3.85s4.86-2.71,7.29-4.06c4.78-2.84,9.54-5.72,14.11-8.86s9-6.4,13.41-9.8,8.49-7.06,12.47-10.85a122.41,122.41,0,0,0,20.69-25.07,70,70,0,0,0,6.62-14.34,45.41,45.41,0,0,0,2.42-15,33.71,33.71,0,0,0-3.42-14.4c-.49-1.14-1.19-2.19-1.79-3.28s-1.37-2.11-2.18-3.09a41.11,41.11,0,0,0-5.22-5.6l-1.46-1.29-1.54-1.2c-1-.84-2.14-1.52-3.2-2.3a68.58,68.58,0,0,0-7-3.94,88.57,88.57,0,0,0-15.22-5.76,147.6,147.6,0,0,0-32.85-5.07c-5.59-.3-11.21-.3-16.83-.12s-11.25.52-16.87,1.07h0a2.09,2.09,0,0,1-.55-4.14q8.49-1.43,17.1-2.28c5.74-.53,11.51-.85,17.3-.88a149.9,149.9,0,0,1,34.74,3.64,95.59,95.59,0,0,1,16.89,5.68,74.22,74.22,0,0,1,8.06,4.18c1.27.84,2.6,1.6,3.83,2.53l1.87,1.36L287.63,92c.61.48,1.18,1,1.75,1.54s1.16,1.05,1.71,1.61a45.92,45.92,0,0,1,3.16,3.51c1,1.19,1.92,2.52,2.85,3.81s1.72,2.69,2.41,4.14a44,44,0,0,1,4.93,18.43A56,56,0,0,1,302,143.68a80.17,80.17,0,0,1-7.36,16.73,134,134,0,0,1-22.17,27.84l-3.18,3.05c-1.08,1-2.19,2-3.29,2.94-2.17,2-4.47,3.79-6.71,5.68-4.6,3.62-9.26,7.16-14.1,10.41s-9.76,6.38-14.75,9.38-10.13,5.74-15.34,8.32a304.48,304.48,0,0,1-32,13.72,283.76,283.76,0,0,1-33.33,10c-22.6,5.22-45.94,8.09-69.36,6.42A155,155,0,0,1,62.92,256a110.61,110.61,0,0,1-17.19-4.48,86.44,86.44,0,0,1-16.32-7.57,56.57,56.57,0,0,1-14-11.81,44.65,44.65,0,0,1-8.75-16.33l-.33-1.12-.24-1.14c-.16-.76-.34-1.51-.47-2.28-.2-1.53-.46-3.06-.51-4.6a44.94,44.94,0,0,1,.36-9.14,60.08,60.08,0,0,1,5.14-17.12,89.87,89.87,0,0,1,9-15.05A2.08,2.08,0,0,1,23,167.65Z"></path>
    <path class="o" d="M700.85,99h24.28l51.3,120.56H748.9L738,192.7H687.34l-11,26.85H649.54Zm27.7,70.45-15.91-38.82-15.9,38.82Z"></path>
    <path class="o" d="M527.07,160v-.34c0-34,26.51-61.91,62.76-61.91,21.55,0,34.55,5.82,47,16.42l-16.59,20c-9.23-7.7-17.44-12.15-31.29-12.15-19.15,0-34.37,16.93-34.37,37.28v.35c0,21.88,15,38,36.25,38,9.58,0,18.13-2.4,24.79-7.18v-17.1h-26.5V150.63h52v52a77.74,77.74,0,0,1-51.14,19C552.73,221.6,527.07,195.44,527.07,160Z"></path>
    <path class="o" d="M480.77,99.84H507.1V219.55H480.77Z"></path>
    <path class="o" d="M343.27,160v-.34c0-34,26.5-61.91,62.76-61.91,21.54,0,34.54,5.82,47,16.42l-16.58,20c-9.24-7.7-17.45-12.15-31.3-12.15-19.15,0-34.37,16.93-34.37,37.28v.35c0,21.88,15.05,38,36.25,38,9.58,0,18.13-2.4,24.8-7.18v-17.1H405.34V150.63h52v52a77.69,77.69,0,0,1-51.13,19C368.92,221.6,343.27,195.44,343.27,160Z"></path>
  </g>
</svg>
