<svg width="42" height="29" viewBox="0 0 42 29" fill="none" xmlns="http://www.w3.org/2000/svg">
<rect y="0.25" width="42" height="28" rx="2" fill="white"/>
<path d="M35.4126 13.1066V15.0217H38V13.1066V4.58222H35.4126V13.1066ZM31.4142 13.1066C30.867 14.9787 29.202 16.3623 27.1539 16.3623C25.2661 16.3623 23.5112 14.967 22.9054 13.1066C22.7608 12.661 22.6787 12.1842 22.6787 11.6995C22.6787 9.03005 24.8675 7.18135 27.1539 7.18135C29.6944 7.18135 31.6096 9.23329 31.6096 11.7542C31.6096 12.2233 31.5432 12.6766 31.4142 13.1066ZM27.1266 4.28127C22.8898 4.28127 19.7473 7.64255 19.7473 11.7699C19.7473 12.2272 19.7864 12.6727 19.8646 13.1066C20.4782 16.5968 23.4565 19.2429 27.1305 19.2429C30.8006 19.2429 33.7945 16.5968 34.412 13.1066C34.4902 12.6727 34.5293 12.2272 34.5293 11.7699C34.5253 7.64645 31.2539 4.28127 27.1266 4.28127ZM7.16979 13.1066C7.05644 12.7001 6.99391 12.2545 6.99391 11.7738C6.99391 8.81508 9.20221 7.15399 11.4848 7.15399C13.822 7.15399 14.7914 8.70565 14.7914 8.70565H18.1878C18.1878 8.70565 16.7808 4.25 11.559 4.25C6.77503 4.25 4 8.15846 4 11.6995C4 12.1568 4.0469 12.6297 4.1368 13.1066C4.72307 16.1552 7.18152 19.2585 11.3402 19.2585C16.2258 19.2585 18.3403 15.4946 18.7741 13.1066C18.8288 12.8095 18.8562 12.532 18.8601 12.2858C18.9187 11.8363 18.8601 11.3009 18.8601 11.3009H11.4105V13.1066V13.7085H15.4988C15.4988 13.7085 14.4943 16.3545 11.4809 16.3545C9.71031 16.3584 7.75606 15.2171 7.16979 13.1066ZM35.4126 18.9497H38V16.249H35.4126V18.9497Z" fill="#A8003B"/>
<path d="M5.25836 22.4287V22.0574H4.30078V23.7419H5.25836V23.3706H4.73853V23.0814H5.231V22.7101H4.73853V22.4287H5.25836Z" fill="black"/>
<path d="M6.5746 22.843L5.91406 23.7419H6.44562L6.82865 23.1908L7.18432 23.7419H7.70806L7.08661 22.843L7.62598 22.0574H7.08661L6.82865 22.4912L6.5746 22.0574H6.03523L6.5746 22.843Z" fill="black"/>
<path d="M8.82447 22.4091H8.89873C9.06679 22.4091 9.21532 22.413 9.21532 22.6241C9.21532 22.8312 9.05898 22.8312 8.89873 22.8312H8.82447V22.4091ZM8.39062 23.7419H8.82447V23.183H9.07461C9.45764 23.183 9.6687 23.0071 9.6687 22.6124C9.6687 22.2254 9.41856 22.0574 9.05507 22.0574H8.39062V23.7419Z" fill="black"/>
<path d="M10.8518 22.3935H10.8948C11.0355 22.3935 11.1997 22.4209 11.1997 22.6046C11.1997 22.7883 11.0394 22.8156 10.8948 22.8156H10.8518V22.3935ZM11.2817 23.0501C11.5202 23.0071 11.6491 22.8078 11.6491 22.5733C11.6491 22.2137 11.399 22.0574 11.0629 22.0574H10.4141V23.738H10.8518V23.0892H10.8557L11.2661 23.738H11.8094L11.2817 23.0501Z" fill="black"/>
<path d="M13.442 22.4287V22.0574H12.4844V23.7419H13.442V23.3706H12.9221V23.0814H13.4146V22.7101H12.9221V22.4287H13.442Z" fill="black"/>
<path d="M15.3522 22.1512C15.2037 22.0652 14.9927 22.0105 14.8246 22.0105C14.4885 22.0105 14.2461 22.2333 14.2461 22.5772C14.2461 22.9016 14.4259 22.9759 14.7034 23.0541C14.7972 23.0814 14.9692 23.1244 14.9692 23.2456C14.9692 23.3628 14.8598 23.4136 14.7581 23.4136C14.6096 23.4136 14.4806 23.3355 14.3712 23.2417L14.1836 23.5934C14.3556 23.7146 14.5627 23.7849 14.7738 23.7849C14.9418 23.7849 15.1216 23.738 15.2506 23.6247C15.3835 23.5113 15.4265 23.3394 15.4265 23.1713C15.4265 22.8977 15.2467 22.7805 15.0122 22.7101L14.8988 22.6749C14.8246 22.6515 14.7073 22.6124 14.7073 22.5147C14.7073 22.4209 14.8129 22.374 14.8949 22.374C15.0005 22.374 15.106 22.417 15.1842 22.4873L15.3522 22.1512Z" fill="black"/>
<path d="M17.278 22.1512C17.1295 22.0652 16.9223 22.0105 16.7504 22.0105C16.4142 22.0105 16.1719 22.2333 16.1719 22.5772C16.1719 22.9016 16.3517 22.9759 16.6292 23.0541C16.723 23.0814 16.895 23.1244 16.895 23.2456C16.895 23.3628 16.7855 23.4136 16.6839 23.4136C16.5354 23.4136 16.4064 23.3355 16.297 23.2417L16.1094 23.5934C16.2813 23.7146 16.4885 23.7849 16.6996 23.7849C16.8676 23.7849 17.0435 23.738 17.1764 23.6247C17.3093 23.5113 17.3484 23.3394 17.3484 23.1713C17.3484 22.8977 17.1686 22.7805 16.9341 22.7101L16.8207 22.6749C16.7465 22.6515 16.6253 22.6124 16.6253 22.5147C16.6253 22.4209 16.7308 22.374 16.8129 22.374C16.9184 22.374 17.024 22.417 17.1021 22.4873L17.278 22.1512Z" fill="black"/>
<path d="M19.9968 23.7419H20.5127L20.157 23.3667L20.1766 23.3471L20.3798 23.1322L20.1453 22.9094C20.0867 22.9954 20.0163 23.0657 19.9381 23.1361L19.7349 22.925C19.8991 22.8429 20.032 22.7413 20.032 22.542C20.032 22.2684 19.7857 22.1082 19.5356 22.1082C19.2776 22.1082 19.0431 22.2723 19.0431 22.5459C19.0431 22.6749 19.1056 22.7531 19.1564 22.8234L19.1916 22.8703L19.1525 22.8859C18.9532 22.9758 18.8086 23.0892 18.8086 23.3276C18.8086 23.6168 19.047 23.781 19.3206 23.781C19.5121 23.781 19.7075 23.6989 19.8639 23.5895L19.9968 23.7419ZM19.5551 22.7296C19.5043 22.6749 19.43 22.5967 19.43 22.5185C19.43 22.4404 19.4887 22.3896 19.5629 22.3896C19.6489 22.3896 19.7036 22.456 19.7036 22.5381C19.6997 22.6241 19.6255 22.6905 19.5551 22.7296ZM19.6333 23.3471C19.5668 23.3862 19.4887 23.4136 19.4105 23.4136C19.3284 23.4136 19.2307 23.3628 19.2307 23.269C19.2307 23.1791 19.3128 23.1204 19.3792 23.0775L19.6333 23.3471Z" fill="black"/>
<path d="M22.4221 22.0574H21.9844V23.7419H22.9459V23.3706H22.4221V22.0574Z" fill="black"/>
<path d="M24.4849 22.4246C24.7468 22.4246 24.9617 22.6356 24.9617 22.8701C24.9617 23.1593 24.7468 23.3743 24.4849 23.3743C24.2269 23.3743 24.0081 23.1593 24.0081 22.8701C24.012 22.6395 24.2269 22.4246 24.4849 22.4246ZM24.4849 22.0024C24.0003 22.0024 23.5547 22.3581 23.5547 22.8701C23.5547 23.4134 23.9455 23.8003 24.4849 23.8003C25.0243 23.8003 25.4151 23.4173 25.4151 22.8701C25.4151 22.3581 24.9696 22.0024 24.4849 22.0024Z" fill="black"/>
<path d="M26.9849 22.8V23.144H27.3406C27.321 23.3394 27.1764 23.4371 26.9888 23.4371C26.7035 23.4371 26.5432 23.1713 26.5432 22.9095C26.5432 22.6515 26.6918 22.3779 26.981 22.3779C27.1412 22.3779 27.1686 22.3896 27.2663 22.4717H27.7627C27.6181 22.159 27.3445 21.9988 27.0005 21.9988C26.4612 21.9988 26.0898 22.3584 26.0898 22.9055C26.0898 23.4332 26.4572 23.7928 26.9888 23.7928C27.2702 23.7928 27.5164 23.6911 27.6845 23.4605C27.833 23.2495 27.8487 23.0423 27.8565 22.7961H26.9849V22.8Z" fill="black"/>
<path d="M29.0354 22.0574H28.5977V23.738H29.0354V22.0574Z" fill="black"/>
<path d="M30.9694 22.1512C30.8209 22.0652 30.6137 22.0105 30.4418 22.0105C30.1056 22.0105 29.8633 22.2333 29.8633 22.5772C29.8633 22.9016 30.0431 22.9759 30.3206 23.0541C30.4144 23.0814 30.5864 23.1244 30.5864 23.2456C30.5864 23.3628 30.477 23.4136 30.3753 23.4136C30.2268 23.4136 30.0978 23.3355 29.9884 23.2417L29.8008 23.5934C29.9728 23.7146 30.1799 23.7849 30.3949 23.7849C30.5629 23.7849 30.7427 23.738 30.8717 23.6247C31.0046 23.5113 31.0437 23.3394 31.0437 23.1713C31.0437 22.8977 30.8639 22.7805 30.6294 22.7101L30.516 22.6749C30.4418 22.6515 30.3206 22.6124 30.3206 22.5147C30.3206 22.4209 30.4261 22.374 30.5082 22.374C30.6137 22.374 30.7193 22.417 30.7974 22.4873L30.9694 22.1512Z" fill="black"/>
<path d="M32.4692 22.4287H32.8327V22.0574H31.6719V22.4287H32.0315V23.7419H32.4692V22.4287Z" fill="black"/>
<path d="M33.9729 22.0574H33.5352V23.738H33.9729V22.0574Z" fill="black"/>
<path d="M36.0164 22.1004C35.8874 22.0457 35.7584 22.0144 35.6177 22.0144C35.3793 22.0144 35.1409 22.116 34.9767 22.288C34.8165 22.4522 34.7305 22.6749 34.7305 22.9055C34.7305 23.1557 34.8165 23.3746 35.0002 23.5426C35.1721 23.7029 35.3988 23.7888 35.6333 23.7888C35.7662 23.7888 35.8717 23.7537 36.0203 23.7107V23.1869C35.9265 23.2964 35.7858 23.3667 35.6411 23.3667C35.3676 23.3667 35.1839 23.1752 35.1839 22.9094C35.1839 22.6476 35.3636 22.4443 35.6333 22.4443C35.7819 22.4443 35.9265 22.5069 36.0164 22.628V22.1004Z" fill="black"/>
<path d="M37.9265 22.1512C37.7779 22.0652 37.5669 22.0105 37.3988 22.0105C37.0627 22.0105 36.8204 22.2333 36.8204 22.5772C36.8204 22.9016 37.0001 22.9759 37.2737 23.0541C37.3675 23.0814 37.5395 23.1244 37.5395 23.2456C37.5395 23.3628 37.4301 23.4136 37.3285 23.4136C37.1799 23.4136 37.051 23.3355 36.9415 23.2417L36.7539 23.5934C36.9259 23.7146 37.133 23.7849 37.3441 23.7849C37.5161 23.7849 37.6919 23.738 37.8209 23.6247C37.9538 23.5113 37.9968 23.3394 37.9968 23.1713C37.9968 22.8977 37.8131 22.7805 37.5825 22.7101L37.4692 22.6749C37.3949 22.6515 37.2737 22.6124 37.2737 22.5147C37.2737 22.4209 37.3832 22.374 37.4613 22.374C37.5669 22.374 37.6724 22.417 37.7506 22.4873L37.9265 22.1512Z" fill="black"/>
</svg>
