<?xml version="1.0" encoding="UTF-8"?>
<svg xmlns="http://www.w3.org/2000/svg" width="200" height="70" viewBox="0 0 200 70" fill="none">
  <path d="M0 46.6897H11.782C22.914 46.6897 23.5744 46.6792 23.6268 46.501C23.6583 46.4067 24.7694 41.1866 26.1006 34.9078C27.4319 28.6289 28.543 23.3774 28.5744 23.2411L28.6373 23H0V46.6897Z" fill="#203E5A"></path>
  <path d="M30.1467 23.2411C30.1153 23.3774 29.0042 28.6289 27.673 34.9078C26.3417 41.1866 25.2306 46.4067 25.1992 46.501C25.1467 46.6792 25.2725 46.6897 26.7715 46.6897C28.3753 46.6897 28.4067 46.6897 28.4591 46.4486C28.4906 46.3229 29.6017 41.0818 30.9329 34.7925C32.2537 28.5031 33.3648 23.283 33.3962 23.1782C33.4486 23.0105 33.3228 23 31.8344 23C30.2201 23 30.2096 23 30.1467 23.2411Z" fill="#203E5A"></path>
  <path d="M34.9686 23.1782C34.9476 23.283 33.826 28.5346 32.4948 34.8449C31.1635 41.1551 30.0524 46.4067 30.021 46.501C29.9686 46.6792 30.0943 46.6897 31.5828 46.6897C33.1761 46.6897 33.2075 46.6897 33.26 46.4591C33.3019 46.3229 34.413 41.0818 35.7442 34.7925C37.0755 28.5031 38.1866 23.283 38.218 23.1782C38.2704 23.0105 38.1447 23 36.6457 23C35.1887 23 35.021 23.021 34.9686 23.1782Z" fill="#203E5A"></path>
  <path d="M140.912 27.5073C139.245 27.8113 138.113 28.587 137.411 29.9182C137.191 30.3375 137.043 30.9259 137.041 31.6085C137.04 32.2991 137.191 32.9581 137.411 33.3983C137.956 34.457 139.13 35.2851 141.09 35.9769C142.432 36.4486 142.914 36.6792 143.323 37.0461C144.025 37.6646 144.057 38.5136 143.386 39.0797C142.641 39.7086 140.639 39.7086 138.795 39.0797C138.208 38.8805 137.694 38.7233 137.683 38.7442C137.631 38.7966 136.792 41.1761 136.824 41.1971C137.054 41.3857 138.155 41.8155 138.868 41.9937C139.612 42.1824 140.094 42.2243 141.509 42.2348C143.396 42.2348 143.983 42.1405 145.021 41.6478C145.818 41.2809 146.488 40.6205 146.845 39.8763C147.096 39.3522 147.182 38.7542 147.183 38.0157C147.183 37.2516 147.096 36.6373 146.824 36.0922C146.268 34.9497 145.189 34.2159 142.662 33.2725C142.002 33.021 141.279 32.7065 141.069 32.5702C140.157 32.0042 140.115 30.8826 140.985 30.4424C141.855 29.9916 143.553 30.086 144.885 30.652C145.388 30.8616 145.618 30.914 145.65 30.8302C145.681 30.7568 145.88 30.1908 146.111 29.5514C146.426 28.7023 146.499 28.3878 146.405 28.3249C146.195 28.1887 145.168 27.8218 144.549 27.6541C143.836 27.4654 141.646 27.3816 140.912 27.5073Z" fill="#203E5A"></path>
  <path d="M45.1782 27.6646C42.7359 28.2201 40.7966 30.1174 40.1363 32.6122C39.8533 33.6709 39.8218 35.8826 40.0839 37.0461C40.5031 38.9958 41.8029 40.7358 43.4067 41.501C44.7275 42.1195 45.3249 42.2348 47.2746 42.2243C48.9937 42.2138 50.1048 42.0776 51.3417 41.7107L51.8868 41.543V33.4822H46.0168V36.6268H48.7421V37.9895C48.7421 39.195 48.7212 39.3627 48.5639 39.4361C48.4591 39.478 47.8826 39.5094 47.2746 39.499C45.9224 39.499 45.2096 39.2579 44.5073 38.5765C43.6897 37.7799 43.3124 36.805 43.2285 35.2642C43.0818 32.8113 44.0776 30.9769 45.7966 30.5157C47.1488 30.1384 48.3019 30.2013 49.7379 30.7149C50.1468 30.8616 50.5451 31.0084 50.6394 31.0294C50.7652 31.0713 50.891 30.8407 51.2054 29.9497C51.4256 29.3312 51.6247 28.7652 51.6457 28.6918C51.7086 28.5136 50.7652 28.0629 49.8113 27.8008C48.7317 27.5178 46.1635 27.4444 45.1782 27.6646Z" fill="#203E5A"></path>
  <path d="M56.0797 27.6855C55.8805 27.7065 55.3983 27.7694 55.0105 27.8323L54.2977 27.9476V41.9727H57.5472V36.8365H58.3229C59.0985 36.8365 59.0985 36.8365 59.413 37.2243C59.9161 37.8637 61.1216 39.7715 61.74 40.914L62.3166 41.9623L64.13 41.9727C65.1153 41.9727 65.9329 41.9413 65.9329 41.8994C65.9329 41.6059 64.0042 38.3249 63.0503 36.9937C62.7254 36.5535 62.4738 36.1761 62.4948 36.1656C63.3019 35.8197 64.1929 35.086 64.5807 34.457C65.0839 33.6394 65.2411 32.0985 64.9371 30.914C64.4969 29.2055 62.9874 28.1048 60.587 27.717C59.9581 27.6226 56.9287 27.5912 56.0797 27.6855ZM60.2096 30.4948C61.3103 30.7778 61.74 31.2704 61.74 32.2243C61.74 33.6394 60.8176 34.2159 58.5744 34.2159H57.5472V30.3375H58.5744C59.1509 30.3375 59.8637 30.4109 60.2096 30.4948Z" fill="#203E5A"></path>
  <path d="M98.1342 27.717C97.7044 27.7589 97.2013 27.8323 97.0021 27.8742L96.6457 27.9371V41.847L97.5681 41.9832C98.1027 42.0671 99.3816 42.13 100.681 42.13C103.229 42.13 104.119 41.9623 105.639 41.2285C107.317 40.4214 108.564 38.7862 108.962 36.8889C109.172 35.9036 109.161 33.7966 108.952 32.7694C108.449 30.3061 106.782 28.6289 104.13 27.9161C103.438 27.7275 102.945 27.6855 101.101 27.6646C99.8952 27.6436 98.5535 27.6646 98.1342 27.717ZM103.197 30.5786C104.948 31.1447 105.807 32.5388 105.807 34.8449C105.807 37.696 104.423 39.174 101.541 39.4151C101.048 39.4465 100.482 39.457 100.273 39.4151L99.8952 39.3417V30.3166L101.289 30.369C102.138 30.4004 102.883 30.4843 103.197 30.5786Z" fill="#203E5A"></path>
  <path d="M125.419 27.717C125.021 27.7694 124.528 27.8428 124.35 27.8742L124.004 27.9371V41.9727H127.149V36.826L128.857 36.8889L129.518 37.8323C129.885 38.3459 130.597 39.499 131.101 40.369L132.023 41.9727H135.65L134.99 40.6834C134.623 39.9811 133.847 38.6813 133.249 37.7904C132.662 36.8994 132.191 36.1656 132.201 36.1551C132.222 36.1447 132.484 35.9979 132.788 35.8407C133.868 35.2642 134.518 34.3103 134.717 33.0314C135.031 30.9979 134.224 29.2683 132.568 28.4298C131.384 27.8428 130.577 27.696 128.249 27.6541C127.096 27.6436 125.828 27.6646 125.419 27.717ZM130.377 30.652C130.692 30.7883 131.027 31.0294 131.153 31.2075C131.488 31.6688 131.53 32.4864 131.258 33.1048C131.069 33.5241 130.954 33.6289 130.43 33.87C129.906 34.1111 129.654 34.153 128.491 34.195L127.149 34.2474V32.3606C127.149 31.3229 127.18 30.4423 127.233 30.4004C127.275 30.348 127.872 30.3375 128.564 30.3585C129.57 30.4004 129.937 30.4633 130.377 30.652Z" fill="#203E5A"></path>
  <path d="M81.4465 41.9727H84.5912V37.3291L84.6017 32.696L84.9685 33.1153C86.2893 34.6352 88.522 37.8218 90.1363 40.5262L91.0063 41.9727H93.7107V27.717H90.566V31.8574C90.566 34.1321 90.5346 35.9979 90.4927 35.9874C90.4402 35.9874 89.8952 35.2327 89.2558 34.3103C87.8511 32.2662 85.9119 29.7505 84.8428 28.5765L84.0566 27.717H81.4465V41.9727Z" fill="#203E5A"></path>
  <path d="M111.53 41.9727H121.593V39.3522L118.166 39.3312L114.727 39.2998L114.696 37.5912L114.675 35.8931H120.44V33.2725L117.589 33.2516L114.727 33.2201V30.4948L117.956 30.4633L121.174 30.4423V27.717H111.53V41.9727Z" fill="#203E5A"></path>
  <path d="M149.057 30.4423H152.201C153.931 30.4423 155.346 30.4738 155.346 30.5052C155.346 30.5367 155.073 30.9036 154.738 31.3124C153.134 33.283 150.786 36.6268 149.423 38.8805L148.742 40.0126V41.9727H159.958V39.3522H156.342C154.35 39.3522 152.725 39.3208 152.725 39.2893C152.725 39.1426 154.727 36.1971 155.818 34.74C157.107 33.0105 158.008 31.8889 159.036 30.7463L159.748 29.9392V27.717H149.057V30.4423Z" fill="#203E5A"></path>
  <path d="M162.159 41.9727H172.327V39.3522L168.899 39.3312L165.461 39.2998L165.43 37.5912L165.409 35.8931H171.069V33.2725L168.27 33.2516L165.461 33.2201L165.398 30.4423H171.803V27.717H162.159V41.9727Z" fill="#203E5A"></path>
  <path d="M174.633 41.9727H177.883V37.3816L177.893 32.8008L178.26 33.2201C179.507 34.6247 182.044 38.2725 183.501 40.7778L184.203 41.9727H186.897V27.717H183.753L183.732 31.8784L183.7 36.0503L182.537 34.3732C181.069 32.2662 179.769 30.5681 178.407 28.9644L177.338 27.717H174.633V41.9727Z" fill="#203E5A"></path>
  <path d="M189.937 41.9727H200V39.3522L196.572 39.3312L193.134 39.2998L193.103 37.5912L193.082 35.8931H198.847V33.2725L195.996 33.2516L193.134 33.2201L193.071 30.4423H199.476V27.717H189.937V41.9727Z" fill="#203E5A"></path>
  <path d="M67.1908 32.5807C67.1908 36.2914 67.2222 37.5178 67.3375 38.1258C67.8826 40.956 70.0629 42.4235 73.4277 42.2558C76.2264 42.109 77.8092 40.9874 78.5744 38.6184C78.7212 38.1363 78.7631 37.5283 78.805 35.0231L78.847 32.0147H75.5765V34.6143C75.5765 37.5388 75.4927 38.0314 74.9161 38.6918C73.9308 39.8029 71.761 39.761 71.0063 38.6184C70.4612 37.7904 70.4402 37.5912 70.4402 32.5178V27.8218H67.1908V32.5807Z" fill="#203E5A"></path>
  <path d="M71.3836 30.9665H74.6331V27.8218H71.3836V30.9665Z" fill="#203E5A"></path>
  <path d="M75.5765 30.9665H78.7212V27.8218H75.5765V30.9665Z" fill="#203E5A"></path>
</svg>
