<?xml version="1.0" encoding="UTF-8"?>
<svg xmlns="http://www.w3.org/2000/svg" width="29" height="26" viewBox="0 0 29 26" fill="none">
  <g clip-path="url(#clip0_22402_9889)">
    <path d="M3.1875 4.83374C4.94948 4.83374 6.375 6.25926 6.375 8.02124H6.36172V13.7233C6.90182 13.2585 7.6013 12.9796 8.36719 12.9796C9.18177 12.9796 9.96094 13.3027 10.5365 13.8783L13.2547 16.5965C13.6 16.9418 13.901 17.3137 14.1578 17.7166C14.419 17.3137 14.7201 16.9374 15.0609 16.5965L17.7792 13.8783C18.3547 13.3027 19.1339 12.9796 19.9484 12.9796C20.7143 12.9796 21.4182 13.2585 21.9539 13.7233V8.02124C21.9539 6.25926 23.3794 4.83374 25.1414 4.83374C26.9034 4.83374 28.3289 6.25926 28.3289 8.02124V17.5882C28.3289 19.0004 27.7711 20.3507 26.775 21.3468L23.769 24.3527C23.3573 24.7689 22.6844 24.7645 22.2682 24.3527C21.8521 23.941 21.8521 23.2681 22.2682 22.852L25.2654 19.846C25.863 19.2483 26.1995 18.4382 26.1995 17.5926V8.02124C26.1995 7.43244 25.7258 6.95874 25.137 6.95874C24.5482 6.95874 24.0745 7.43244 24.0745 8.02124V14.4804C24.0745 15.6181 23.6229 16.7072 22.8216 17.5085L22.1177 18.2124L20.9357 19.3944L20.2273 20.1027C19.8156 20.5189 19.1427 20.5145 18.7266 20.1027C18.3104 19.691 18.3104 19.0181 18.7266 18.602L19.4349 17.8936L20.6214 16.7116C20.7984 16.5345 20.8958 16.2955 20.8958 16.0475C20.8958 15.5251 20.4708 15.1046 19.9529 15.1046C19.705 15.1046 19.4659 15.202 19.2888 15.3791L16.5706 18.0973C15.7117 18.9561 15.2292 20.1249 15.2292 21.3379V23.6046C15.2292 24.1934 14.7555 24.6671 14.1667 24.6671C13.5779 24.6671 13.1042 24.1934 13.1042 23.6046V21.3379C13.1042 20.1249 12.6216 18.9561 11.7628 18.1017L9.04453 15.3835C8.86745 15.2064 8.62839 15.109 8.38047 15.109C7.85807 15.109 7.4375 15.534 7.4375 16.052C7.4375 16.2999 7.5349 16.5389 7.71198 16.716L8.89401 17.8981L9.60234 18.6064C10.0185 19.0181 10.0141 19.691 9.60234 20.1072C9.19063 20.5233 8.51771 20.5233 8.10156 20.1072L7.39323 19.3988L6.20677 18.2124L5.50286 17.5085C4.70156 16.7027 4.25 15.6137 4.25 14.4804V8.02124C4.25 7.43244 3.7763 6.95874 3.1875 6.95874C2.5987 6.95874 2.125 7.43244 2.125 8.02124V17.5926C2.125 18.4382 2.46146 19.2483 3.05911 19.846L6.06068 22.8564C6.47682 23.2681 6.4724 23.941 6.06068 24.3572C5.64896 24.7733 4.97604 24.7733 4.5599 24.3572L1.55391 21.3512C0.557812 20.3507 0 19.0004 0 17.5926V8.02124C0 6.25926 1.42552 4.83374 3.1875 4.83374Z" fill="#3EDC99"></path>
    <path d="M10.5483 6.59564C10.5383 6.72972 10.5333 6.8638 10.5333 7.00041C10.5333 7.13701 10.5383 7.27109 10.5483 7.40517H9.93325C9.60075 7.40517 9.33325 7.67585 9.33325 8.01231C9.33325 8.34877 9.60075 8.61945 9.93325 8.61945H10.7658C11.4533 10.9595 13.5958 12.6671 16.1333 12.6671H16.7333C17.0658 12.6671 17.3333 12.3964 17.3333 12.0599C17.3333 11.7235 17.0658 11.4528 16.7333 11.4528H16.1333C14.2683 11.4528 12.6733 10.279 12.0333 8.61945H15.9333C16.2658 8.61945 16.5333 8.34877 16.5333 8.01231C16.5333 7.67585 16.2658 7.40517 15.9333 7.40517H11.7508C11.7383 7.27109 11.7333 7.13701 11.7333 7.00041C11.7333 6.8638 11.7383 6.72972 11.7508 6.59564H15.9333C16.2658 6.59564 16.5333 6.32496 16.5333 5.9885C16.5333 5.65204 16.2658 5.38136 15.9333 5.38136H12.0333C12.6733 3.72184 14.2683 2.54803 16.1333 2.54803H16.7333C17.0658 2.54803 17.3333 2.27734 17.3333 1.94088C17.3333 1.60442 17.0658 1.33374 16.7333 1.33374H16.1333C13.5958 1.33374 11.4533 3.04133 10.7658 5.38136H9.93325C9.60075 5.38136 9.33325 5.65204 9.33325 5.9885C9.33325 6.32496 9.60075 6.59564 9.93325 6.59564H10.5483Z" fill="#3EDC99" stroke="#3EDC99" stroke-width="0.333333"></path>
  </g>
  <defs>
    <clipPath id="clip0_22402_9889">
      <rect width="28.6667" height="24.6667" fill="white" transform="translate(0 0.666748)"></rect>
    </clipPath>
  </defs>
</svg>
