<?xml version="1.0" encoding="UTF-8"?>
<svg xmlns="http://www.w3.org/2000/svg" width="200" height="70" viewBox="0 0 200 70" fill="none">
  <g clip-path="url(#clip0_316_46096)">
    <path d="M0 25.4064C0.00203725 25.271 0.0567483 25.1417 0.15254 25.0459C0.248331 24.9501 0.377671 24.8954 0.513125 24.8933H2.32879C2.39677 24.8911 2.46448 24.9029 2.52773 24.9279C2.59097 24.9529 2.64842 24.9906 2.69651 25.0387C2.7446 25.0868 2.78232 25.1443 2.80733 25.2075C2.83234 25.2708 2.84411 25.3385 2.84192 25.4064V33.1033H12.9465V25.4064C12.9486 25.271 13.0033 25.1417 13.0991 25.0459C13.1948 24.9501 13.3242 24.8954 13.4596 24.8933H15.2753C15.4108 24.8954 15.5401 24.9501 15.6359 25.0459C15.7317 25.1417 15.7864 25.271 15.7884 25.4064V43.6816C15.7864 43.817 15.7317 43.9463 15.6359 44.0421C15.5401 44.1379 15.4108 44.1926 15.2753 44.1947H13.4596C13.3917 44.1969 13.324 44.1851 13.2607 44.1601C13.1975 44.1351 13.14 44.0974 13.0919 44.0493C13.0438 44.0012 13.0061 43.9437 12.9811 43.8805C12.9561 43.8173 12.9443 43.7495 12.9465 43.6816V35.7084H2.84192V43.6816C2.83988 43.817 2.78516 43.9463 2.68937 44.0421C2.59358 44.1379 2.46425 44.1926 2.32879 44.1947H0.513125C0.377671 44.1926 0.248331 44.1379 0.15254 44.0421C0.0567483 43.9463 0.00203725 43.817 0 43.6816V25.4064Z" fill="#368CB5"></path>
    <path d="M30.8664 24.6169C32.1726 24.6169 33.466 24.8742 34.6728 25.3741C35.8796 25.874 36.9761 26.6066 37.8998 27.5303C38.8234 28.4539 39.5561 29.5504 40.056 30.7572C40.5558 31.964 40.8131 33.2574 40.8131 34.5637C40.8131 35.8699 40.5558 37.1633 40.056 38.3701C39.5561 39.5769 38.8234 40.6734 37.8998 41.5971C36.9761 42.5207 35.8796 43.2534 34.6728 43.7532C33.466 44.2531 32.1726 44.5104 30.8664 44.5104C28.2284 44.5104 25.6984 43.4624 23.833 41.5971C21.9676 39.7317 20.9197 37.2017 20.9197 34.5637C20.9197 31.9256 21.9676 29.3956 23.833 27.5303C25.6984 25.6649 28.2284 24.6169 30.8664 24.6169ZM30.8664 41.8263C32.7736 41.8108 34.5978 41.0435 35.9428 39.6911C37.2877 38.3388 38.045 36.5105 38.0501 34.6031C38.0501 30.6955 34.8135 27.301 30.8664 27.301C26.9193 27.301 23.7221 30.656 23.7221 34.6031C23.7251 36.5043 24.4763 38.3279 25.8132 39.6796C27.1501 41.0313 28.9654 41.8025 30.8664 41.8263Z" fill="#368CB5"></path>
    <path d="M47.5626 25.0117C47.5898 24.897 47.6556 24.7951 47.7491 24.7232C47.8425 24.6514 47.9579 24.6138 48.0758 24.617H48.5099C48.6077 24.6301 48.7012 24.6653 48.7833 24.72C48.8654 24.7748 48.9339 24.8475 48.9836 24.9328L54.7464 39.0634H54.8648L60.6276 24.9328C60.6686 24.8408 60.7348 24.7622 60.8187 24.7063C60.9025 24.6505 61.0005 24.6195 61.1012 24.617H61.5354C61.6497 24.6268 61.7588 24.6693 61.8498 24.7392C61.9407 24.8092 62.0097 24.9037 62.0485 25.0117L65.443 43.5631C65.4712 43.6402 65.4789 43.7232 65.4654 43.8041C65.4519 43.885 65.4176 43.961 65.3659 44.0247C65.3141 44.0883 65.2468 44.1374 65.1703 44.1673C65.0939 44.1971 65.0111 44.2065 64.9299 44.1947H63.1142C62.9982 44.1906 62.8864 44.1504 62.7944 44.0796C62.7024 44.0088 62.6348 43.911 62.6011 43.8L60.5486 31.4455H60.4697L55.4963 44.1552C55.4601 44.2506 55.395 44.3324 55.3101 44.389C55.2252 44.4456 55.1247 44.4743 55.0227 44.471H54.5095C54.4088 44.4685 54.3108 44.4375 54.227 44.3816C54.1432 44.3257 54.0769 44.2472 54.0359 44.1552L49.0231 31.4455H48.9046L46.9311 43.8C46.8974 43.911 46.8298 44.0088 46.7378 44.0796C46.6458 44.1504 46.534 44.1906 46.418 44.1947H44.6023C44.5211 44.2065 44.4383 44.1971 44.3619 44.1673C44.2854 44.1374 44.2181 44.0883 44.1663 44.0247C44.1146 43.961 44.0803 43.885 44.0668 43.8041C44.0533 43.7232 44.061 43.6402 44.0892 43.5631L47.5626 25.0117Z" fill="#368CB5"></path>
    <path d="M70.2191 25.4064C70.2211 25.271 70.2758 25.1417 70.3716 25.0459C70.4674 24.9501 70.5967 24.8954 70.7322 24.8933H81.7841C81.8521 24.8911 81.9198 24.9029 81.983 24.9279C82.0463 24.9529 82.1037 24.9906 82.1518 25.0387C82.1999 25.0868 82.2376 25.1443 82.2626 25.2075C82.2876 25.2708 82.2994 25.3385 82.2972 25.4064V26.9458C82.2952 27.0813 82.2405 27.2106 82.1447 27.3064C82.0489 27.4022 81.9195 27.4569 81.7841 27.4589H73.061V33.1033H80.4421C80.5775 33.1053 80.7069 33.1601 80.8027 33.2559C80.8984 33.3516 80.9532 33.481 80.9552 33.6164V35.1558C80.9574 35.2238 80.9456 35.2915 80.9206 35.3547C80.8956 35.418 80.8579 35.4754 80.8098 35.5235C80.7617 35.5716 80.7043 35.6093 80.641 35.6343C80.5778 35.6594 80.5101 35.6711 80.4421 35.6689H73.061V41.6685H81.7841C81.8521 41.6663 81.9198 41.6781 81.983 41.7031C82.0463 41.7281 82.1037 41.7658 82.1518 41.8139C82.1999 41.862 82.2376 41.9195 82.2626 41.9827C82.2876 42.046 82.2994 42.1137 82.2972 42.1817V43.721C82.2952 43.8565 82.2405 43.9858 82.1447 44.0816C82.0489 44.1774 81.9195 44.2321 81.7841 44.2342H70.7322C70.6642 44.2364 70.5965 44.2246 70.5333 44.1996C70.47 44.1746 70.4126 44.1368 70.3645 44.0888C70.3164 44.0407 70.2787 43.9832 70.2537 43.92C70.2286 43.8567 70.2169 43.789 70.2191 43.721V25.4064Z" fill="#368CB5"></path>
    <path d="M106.73 41.4317L107.44 40.287C107.482 40.2046 107.542 40.1321 107.614 40.0744C107.686 40.0168 107.77 39.9754 107.86 39.9529C107.95 39.9305 108.043 39.9276 108.134 39.9443C108.225 39.9611 108.312 39.9972 108.388 40.0502C109.69 41.1159 110.677 41.9448 112.808 41.9448C114.703 41.9448 115.927 40.8001 115.927 39.3792C115.927 37.7214 114.506 36.6557 111.743 35.5505C108.94 34.3663 106.73 32.9059 106.73 29.7088C106.73 27.5378 108.388 24.5775 112.769 24.5775C114.6 24.6097 116.382 25.1718 117.9 26.1958C117.976 26.2451 118.041 26.3095 118.09 26.3851C118.139 26.4606 118.173 26.5457 118.188 26.6347C118.202 26.7238 118.199 26.815 118.176 26.9025C118.154 26.9901 118.114 27.072 118.058 27.1431L117.348 28.2088C117.305 28.2957 117.245 28.3726 117.17 28.4345C117.096 28.4964 117.009 28.5419 116.916 28.5679C116.823 28.594 116.725 28.6001 116.63 28.5859C116.534 28.5716 116.442 28.5373 116.361 28.4852C115.295 27.7747 114.229 27.1037 112.611 27.1037C110.282 27.1037 109.493 28.5641 109.493 29.5903C109.493 31.1692 110.716 32.1165 113.006 33.0638C116.203 34.3663 118.966 35.8662 118.966 39.2608C118.966 42.1421 116.4 44.4709 112.808 44.4709C110.628 44.4702 108.518 43.7016 106.848 42.3C106.776 42.2569 106.714 42.198 106.668 42.1278C106.621 42.0576 106.591 41.9778 106.58 41.8944C106.569 41.8109 106.576 41.726 106.602 41.6459C106.628 41.5658 106.672 41.4926 106.73 41.4317Z" fill="#368CB5"></path>
    <path d="M126.15 25.0117C126.177 24.897 126.243 24.7951 126.336 24.7232C126.43 24.6514 126.545 24.6138 126.663 24.617H127.097C127.195 24.6301 127.288 24.6653 127.37 24.72C127.452 24.7748 127.521 24.8475 127.571 24.9328L133.333 39.0634H133.452L139.215 24.9328C139.256 24.8408 139.322 24.7622 139.406 24.7063C139.49 24.6505 139.587 24.6195 139.688 24.617H140.122C140.237 24.6268 140.346 24.6693 140.437 24.7392C140.528 24.8092 140.597 24.9037 140.636 25.0117L144.03 43.5631C144.058 43.6402 144.066 43.7232 144.052 43.8041C144.039 43.885 144.005 43.961 143.953 44.0247C143.901 44.0883 143.834 44.1374 143.757 44.1673C143.681 44.1971 143.598 44.2065 143.517 44.1947H141.741C141.625 44.1906 141.513 44.1504 141.421 44.0796C141.329 44.0088 141.261 43.911 141.228 43.8L139.175 31.4455H139.096L134.083 44.1947C134.047 44.2901 133.982 44.3719 133.897 44.4285C133.812 44.4851 133.712 44.5138 133.61 44.5104H133.097C132.996 44.508 132.898 44.477 132.814 44.4211C132.73 44.3652 132.664 44.2867 132.623 44.1947L127.61 31.485H127.492L125.518 43.8394C125.484 43.9505 125.417 44.0483 125.325 44.1191C125.233 44.1898 125.121 44.2301 125.005 44.2341H123.229C123.148 44.246 123.065 44.2365 122.988 44.2067C122.912 44.1769 122.845 44.1278 122.793 44.0641C122.741 44.0005 122.707 43.9245 122.693 43.8436C122.68 43.7627 122.687 43.6796 122.716 43.6026L126.15 25.0117Z" fill="#368CB5"></path>
    <path d="M147.543 43.4842L156.029 24.8933C156.079 24.808 156.147 24.7353 156.229 24.6805C156.312 24.6258 156.405 24.5906 156.503 24.5775H156.779C156.877 24.5906 156.971 24.6258 157.053 24.6805C157.135 24.7353 157.203 24.808 157.253 24.8933L165.7 43.4842C165.742 43.5613 165.762 43.6486 165.759 43.7366C165.755 43.8245 165.727 43.9097 165.678 43.983C165.629 44.0562 165.561 44.1147 165.482 44.152C165.402 44.1893 165.314 44.2041 165.226 44.1946H163.489C163.351 44.2002 163.215 44.1609 163.101 44.0826C162.987 44.0044 162.902 43.8913 162.858 43.7605L161.16 39.9712H152.122L150.424 43.7605C150.372 43.8856 150.284 43.993 150.172 44.07C150.06 44.147 149.929 44.1902 149.793 44.1946H148.056C147.582 44.2341 147.346 43.8789 147.543 43.4842ZM160.055 37.6424L156.661 30.064H156.503L153.148 37.6424H160.055Z" fill="#368CB5"></path>
    <path d="M169.173 25.4064C169.175 25.271 169.23 25.1416 169.326 25.0458C169.421 24.95 169.551 24.8953 169.686 24.8933H177.186C178.771 24.8796 180.297 25.4952 181.429 26.6051C182.561 27.715 183.207 29.2286 183.225 30.814C183.225 33.3401 181.528 35.4715 179.12 36.4189L182.909 43.4447C182.961 43.5252 182.989 43.6187 182.991 43.7145C182.992 43.8103 182.967 43.9046 182.918 43.9868C182.868 44.0689 182.797 44.1356 182.712 44.1793C182.627 44.2231 182.531 44.242 182.435 44.2341H180.343C180.221 44.2383 180.1 44.2069 179.995 44.1439C179.89 44.0809 179.805 43.9889 179.751 43.8789L176.12 36.6557H171.936V43.721C171.934 43.8565 171.879 43.9858 171.784 44.0816C171.688 44.1774 171.558 44.2321 171.423 44.2341H169.607C169.539 44.2363 169.472 44.2245 169.408 44.1995C169.345 44.1745 169.288 44.1368 169.24 44.0887C169.191 44.0406 169.154 43.9832 169.129 43.9199C169.104 43.8567 169.092 43.789 169.094 43.721V25.4064H169.173ZM176.988 34.2874C177.886 34.2698 178.741 33.8999 179.369 33.2574C179.997 32.615 180.347 31.7516 180.343 30.8534C180.321 29.978 179.958 29.146 179.331 28.5342C178.705 27.9224 177.864 27.5791 176.988 27.5773H172.054V34.2874H176.988Z" fill="#368CB5"></path>
    <path d="M191.711 27.4589H186.817C186.749 27.4611 186.681 27.4494 186.618 27.4244C186.554 27.3994 186.497 27.3616 186.449 27.3135C186.401 27.2655 186.363 27.208 186.338 27.1447C186.313 27.0815 186.301 27.0138 186.304 26.9458V25.4064C186.306 25.271 186.36 25.1417 186.456 25.0459C186.552 24.9501 186.681 24.8954 186.817 24.8933H199.487C199.555 24.8911 199.623 24.9029 199.686 24.9279C199.749 24.9529 199.807 24.9906 199.855 25.0387C199.903 25.0868 199.94 25.1443 199.965 25.2075C199.99 25.2708 200.002 25.3385 200 25.4064V26.9458C199.998 27.0813 199.943 27.2106 199.847 27.3064C199.752 27.4022 199.622 27.4569 199.487 27.4589H194.592V43.6816C194.59 43.817 194.536 43.9463 194.44 44.0421C194.344 44.1379 194.215 44.1926 194.079 44.1947H192.264C192.128 44.1926 191.999 44.1379 191.903 44.0421C191.807 43.9463 191.753 43.817 191.751 43.6816V27.4589H191.711Z" fill="#368CB5"></path>
    <path d="M101.796 41.6685C101.931 41.6705 102.061 41.7252 102.156 41.821C102.252 41.9168 102.307 42.0461 102.309 42.1816V43.6815C102.307 43.8169 102.252 43.9463 102.156 44.0421C102.061 44.1378 101.931 44.1926 101.796 44.1946H87.5074C87.3719 44.1926 87.2426 44.1378 87.1468 44.0421C87.051 43.9463 86.9963 43.8169 86.9943 43.6815V42.1816C86.9963 42.0461 87.051 41.9168 87.1468 41.821C87.2426 41.7252 87.3719 41.6705 87.5074 41.6685H101.796Z" fill="#9F8373"></path>
    <path d="M99.7434 36.5372L98.0462 34.8794C98.5428 33.9672 98.8893 32.981 99.0724 31.9586C99.1119 31.6823 99.0329 31.5638 98.6777 31.5244L98.0856 31.4849C97.533 31.4454 97.533 31.6823 97.4936 31.9586C97.3924 32.5785 97.1925 33.1781 96.9015 33.7348L93.1123 29.9455L92.8755 29.7087C92.2834 29.1166 91.8097 28.564 91.8097 27.893C91.8008 27.6781 91.8366 27.4637 91.9147 27.2633C91.9929 27.063 92.1118 26.881 92.2639 26.7289C92.416 26.5768 92.598 26.4579 92.7984 26.3797C92.9987 26.3016 93.2131 26.2658 93.4281 26.2747C94.5332 26.2747 95.2042 26.9852 95.2042 27.7746C95.2136 27.8686 95.2001 27.9634 95.1648 28.0509C95.1253 28.4062 95.2042 28.5246 95.7568 28.5246H96.3884C96.7436 28.5246 96.7436 28.3272 96.7831 28.0509C96.8032 27.9334 96.8163 27.8148 96.8226 27.6957C96.8226 26.1168 95.52 24.8538 93.507 24.8538C91.6519 24.8538 90.152 26.1563 90.152 27.8536C90.152 28.9193 90.744 29.7087 91.415 30.4587L91.8492 30.9323V30.9718C91.1782 31.3665 89.3231 32.4322 89.3231 34.6426C89.3231 36.4583 90.7045 38.0371 92.9939 38.0371C93.7409 38.0542 94.4829 37.9116 95.1704 37.6189C95.8579 37.3263 96.475 36.8902 96.9804 36.3398L98.4409 37.8003C98.4877 37.8585 98.5462 37.9061 98.6127 37.94C98.6792 37.974 98.7522 37.9935 98.8267 37.9972C98.9013 38.0009 98.9758 37.9888 99.0454 37.9617C99.1149 37.9345 99.178 37.893 99.2303 37.8397L99.704 37.3661C100.099 36.9714 99.9408 36.774 99.7434 36.5372ZM93.1517 36.4977C92.8828 36.5139 92.6134 36.4748 92.3601 36.3829C92.1068 36.291 91.875 36.1482 91.679 35.9633C91.483 35.7784 91.327 35.5553 91.2205 35.3078C91.114 35.0603 91.0593 34.7936 91.0598 34.5242C91.0598 33.0637 92.2834 32.3138 92.836 31.9586L95.8753 35.1557C95.5547 35.5734 95.1424 35.9118 94.6701 36.1445C94.1978 36.3772 93.6783 36.4981 93.1517 36.4977Z" fill="#368CB5"></path>
  </g>
  <defs>
    <clipPath id="clip0_316_46096">
      <rect width="200" height="70" fill="white"></rect>
    </clipPath>
  </defs>
</svg>
