<?xml version="1.0" encoding="UTF-8"?>
<svg xmlns="http://www.w3.org/2000/svg" width="200" height="70" viewBox="0 0 200 70" fill="none">
  <path d="M1.37488 34.1475H81.1182V6.19153H1.37488V34.1475Z" fill="#DF1421"></path>
  <path d="M200 35.3391H0.0916748V5H200V35.3391Z" fill="#050A02"></path>
  <path d="M80.3849 33.3226H2.01648V7.01648H80.3849V33.3226Z" fill="#E30613"></path>
  <path d="M113.932 10.7745C113.932 10.7745 109.074 20.3071 108.066 22.2319C107.424 20.2154 104.308 10.7745 104.308 10.7745H97.8001C97.8001 10.7745 94.5004 20.1238 93.8588 22.0486C92.9422 20.2154 88.0843 10.7745 88.0843 10.7745H82.5847L91.2923 29.473H96.7002C96.7002 29.473 100.092 19.7571 100.917 17.4656C101.741 19.7571 105.133 29.473 105.133 29.473H110.999L119.89 10.7745H113.932Z" fill="white"></path>
  <path d="M129.881 16.6407C130.522 17.8323 131.806 20.3987 132.356 21.407H127.589C128.048 20.3987 129.331 17.8323 129.881 16.6407ZM127.039 10.7745L117.415 29.473H123.74C123.74 29.473 125.389 25.9899 125.664 25.5316H134.464C134.739 26.0816 136.48 29.473 136.48 29.473H142.805L132.722 10.7745H127.039Z" fill="white"></path>
  <path d="M154.354 14.8075C156.737 14.8075 157.47 14.8075 157.745 14.8992C158.387 14.9909 158.845 15.1742 159.212 15.4491C159.487 15.7241 159.67 15.9991 159.67 16.4574C159.67 16.824 159.578 17.1907 159.303 17.4656C159.028 17.7406 158.753 17.9239 158.203 18.0156C157.837 18.1073 156.829 18.1989 154.079 18.1989H151.146V14.8075H154.354ZM145.371 10.7745V29.473H151.146V22.1403H151.604C152.612 22.1403 153.437 22.2319 153.896 22.3236C154.354 22.4152 154.72 22.5985 155.087 22.9652C155.545 23.3318 156.37 24.1568 157.562 25.44L161.045 29.2897L161.228 29.473H168.194L164.62 25.165C163.428 23.7901 162.603 22.7819 161.87 22.2319C161.503 21.9569 161.137 21.682 160.77 21.407C162.145 21.132 163.245 20.5821 164.07 19.9404C165.261 18.9322 165.811 17.7406 165.811 16.2741C165.811 15.0825 165.445 14.0743 164.62 13.1577C163.886 12.2411 162.878 11.5995 161.595 11.3245C160.403 10.9579 158.57 10.8662 156.004 10.8662H145.371V10.7745Z" fill="white"></path>
  <path d="M170.852 10.7745V29.473H189.734V25.3483H176.719V21.682H188.451V17.649H176.719V14.8075H189.276V10.7745H170.852Z" fill="white"></path>
  <path d="M10.2659 10.5499V29.1567H28.1394V24.1155C28.1394 24.1155 17.1403 24.1155 16.132 24.1155C16.132 23.1072 16.132 10.5499 16.132 10.5499H10.2659Z" fill="white"></path>
  <path d="M47.2044 17.8827C47.2044 16.7828 45.9212 13.758 41.5215 13.758C36.7553 13.758 35.8387 17.3327 35.8387 17.791V17.8827H47.2044ZM53.0706 23.4739C51.329 27.7818 47.2044 29.615 41.7048 29.615C34.4638 29.615 29.6975 26.6819 29.6975 19.8075C29.6975 12.9331 34.5554 10 41.7048 10C49.5875 10 53.4372 13.9413 53.4372 20.8158V21.3657H35.8387V21.4574C35.8387 23.1989 37.5802 25.857 41.7048 25.857C44.088 25.857 45.8295 25.0321 46.6544 23.4739H53.0706Z" fill="white"></path>
  <path d="M71.2191 10.6829C71.2191 10.6829 67.461 14.4409 66.8194 15.1742C66.1778 14.5325 62.4198 10.6829 62.4198 10.6829H55.4537C55.4537 10.6829 62.6948 19.0238 63.2447 19.6654C62.6948 20.3987 54.6288 29.473 54.6288 29.473H61.7782C61.7782 29.473 66.0862 24.5234 66.7278 23.7901C67.461 24.615 71.6774 29.473 71.6774 29.473H78.8268C78.8268 29.473 70.8524 20.3987 70.2108 19.6654C70.7608 19.0238 78.0935 10.6829 78.0935 10.6829H71.2191Z" fill="white"></path>
  <path d="M0 49.5463H13.9322V52.3877H4.033V55.5041H13.3822V58.2539H4.033V61.6452H14.0238V64.4867H0V49.5463Z" fill="#050A02"></path>
  <path d="M16.0403 49.2713H19.7066V51.8378H16.0403V49.2713ZM16.0403 53.3043H19.7066V64.4867H16.0403V53.3043Z" fill="#050A02"></path>
  <path d="M31.5308 58.1622C31.5308 56.604 30.7058 55.8707 29.056 55.8707C27.3144 55.8707 25.9396 56.6957 25.9396 59.0788V64.4867H22.2732V53.3043H25.8479V54.9541C26.4895 54.0375 28.231 53.0293 30.4308 53.0293C32.3557 53.0293 35.1971 53.7626 35.1971 57.0623V64.4867H31.5308V58.1622Z" fill="#050A02"></path>
  <path d="M38.955 55.7791H36.6636V53.3043H38.955V52.7543C38.955 49.7296 39.8716 49.1796 43.263 49.1796C43.7213 49.1796 44.7296 49.1796 45.5545 49.1796V51.4711C44.9129 51.4711 44.3629 51.4711 43.7213 51.4711C43.0797 51.4711 42.6214 51.5628 42.6214 52.6627V53.3959H45.5545V55.8707H42.6214V64.5783H38.955V55.7791Z" fill="#050A02"></path>
  <path d="M46.7461 56.6957C47.2044 53.2126 50.3208 52.846 53.3456 52.846C58.6618 52.846 59.7617 54.5875 59.7617 56.604V62.1952C59.7617 63.2035 59.945 63.8451 60.22 64.4867H56.5536C56.462 64.1201 56.2786 63.6618 56.2786 63.2951C54.9954 64.5784 52.7039 64.945 51.0541 64.945C48.121 64.945 46.1045 63.9368 46.1045 61.2786C46.1045 58.5289 48.4876 57.9789 50.7791 57.7956L54.7204 57.5206C55.8203 57.429 56.187 57.2456 56.187 56.3291C56.187 55.4125 55.4537 54.9542 53.3456 54.9542C51.7874 54.9542 50.9624 55.0458 50.4125 56.604H46.7461V56.6957ZM56.187 58.9872C55.4537 59.3538 54.7204 59.4455 53.9872 59.4455L51.879 59.7204C50.5958 59.8121 49.9542 60.1787 49.9542 61.187C49.9542 62.1952 50.8708 62.7452 52.2456 62.7452C54.0788 62.7452 56.187 61.8286 56.187 59.9954V58.9872Z" fill="#050A02"></path>
  <path d="M72.1357 57.4289C71.6774 55.9624 70.5775 55.5041 69.1109 55.5041C66.8194 55.5041 65.5362 56.6957 65.5362 58.8955C65.5362 61.0953 66.8194 62.2869 69.1109 62.2869C70.7608 62.2869 71.9523 61.3703 72.1357 59.9954H75.9853C75.3437 63.9367 72.5023 64.8533 68.8359 64.8533C64.6196 64.8533 61.7782 63.0201 61.7782 58.8038C61.7782 54.5875 64.7113 52.7543 69.2026 52.7543C72.044 52.7543 75.3437 53.5793 76.077 57.3373H72.1357V57.4289Z" fill="#050A02"></path>
  <path d="M77.6353 49.2713H81.3016V54.8625C81.8516 53.9459 83.5931 52.9377 85.7929 52.9377C87.7177 52.9377 90.5592 53.6709 90.5592 56.9707V64.395H86.8928V58.0706C86.8928 56.5124 86.0679 55.7791 84.418 55.7791C82.6765 55.7791 81.3016 56.604 81.3016 58.9872V64.395H77.6353V49.2713Z" fill="#050A02"></path>
  <path d="M118.332 57.7039C118.332 56.2374 117.14 55.7791 116.04 55.7791C114.482 55.7791 113.291 56.604 113.291 58.3455V64.395H109.624V57.7039C109.624 56.2374 108.433 55.7791 107.424 55.7791C105.866 55.7791 104.583 56.604 104.583 58.3455V64.395H100.917V53.3043H104.491V54.9541C105.133 54.0375 106.874 53.0293 109.074 53.0293C111.182 53.0293 112.374 53.8542 112.924 55.1375C113.932 53.7626 115.49 53.0293 117.507 53.0293C119.798 53.0293 121.998 53.9459 121.998 56.9706V64.5783H118.332V57.7039Z" fill="#050A02"></path>
  <path d="M124.565 56.6957C125.023 53.2126 128.139 52.846 131.164 52.846C136.48 52.846 137.58 54.5875 137.58 56.604V62.1952C137.58 63.2035 137.763 63.8451 138.038 64.4867H134.372C134.28 64.1201 134.097 63.6618 134.097 63.2951C132.814 64.5784 130.522 64.945 128.873 64.945C125.939 64.945 123.923 63.9368 123.923 61.2786C123.923 58.5289 126.306 57.9789 128.598 57.7956L132.539 57.5206C133.639 57.429 134.005 57.2456 134.005 56.3291C134.005 55.4125 133.272 54.9542 131.164 54.9542C129.606 54.9542 128.781 55.0458 128.231 56.604H124.565V56.6957ZM134.097 58.9872C133.364 59.3538 132.631 59.4455 131.897 59.4455L129.789 59.6288C128.506 59.7204 127.864 60.0871 127.864 61.0953C127.864 62.1036 128.781 62.6535 130.156 62.6535C131.989 62.6535 134.097 61.7369 134.097 59.9038V58.9872Z" fill="#050A02"></path>
  <path d="M149.954 57.4289C149.496 55.9624 148.396 55.5041 146.929 55.5041C144.638 55.5041 143.355 56.6957 143.355 58.8955C143.355 61.0953 144.638 62.2869 146.929 62.2869C148.579 62.2869 149.771 61.3703 149.954 59.9954H153.804C153.162 63.9367 150.321 64.8533 146.654 64.8533C142.438 64.8533 139.597 63.0201 139.597 58.8038C139.597 54.5875 142.53 52.7543 147.021 52.7543C149.862 52.7543 153.162 53.5793 153.895 57.3373H149.954V57.4289Z" fill="#050A02"></path>
  <path d="M155.545 49.2713H159.212V54.8625C159.762 53.9459 161.503 52.9377 163.703 52.9377C165.628 52.9377 168.469 53.6709 168.469 56.9707V64.395H164.803V58.0706C164.803 56.5124 163.978 55.7791 162.328 55.7791C160.587 55.7791 159.212 56.604 159.212 58.9872V64.395H155.545V49.2713Z" fill="#050A02"></path>
  <path d="M184.785 61.0953C183.685 63.7534 181.21 64.8533 177.819 64.8533C173.419 64.8533 170.394 63.0201 170.394 58.8038C170.394 54.5875 173.327 52.7543 177.819 52.7543C182.676 52.7543 184.968 55.2291 184.968 59.4454V59.8121H174.152C174.152 60.912 175.252 62.4702 177.727 62.4702C179.193 62.4702 180.293 62.0119 180.752 61.0036H184.785V61.0953ZM181.21 57.7039C181.21 57.0623 180.477 55.1375 177.727 55.1375C174.794 55.1375 174.244 57.3373 174.244 57.6123H181.21V57.7039Z" fill="#050A02"></path>
  <path d="M196.242 58.1622C196.242 56.604 195.417 55.8707 193.767 55.8707C192.026 55.8707 190.651 56.6957 190.651 59.0788V64.4867H186.984V53.3043H190.559V54.9541C191.201 54.0375 192.942 53.0293 195.142 53.0293C197.067 53.0293 199.908 53.7626 199.908 57.0623V64.4867H196.242V58.1622Z" fill="#050A02"></path>
</svg>
